<?xml version="1.0" standalone="no"?>
<!DOCTYPE svg PUBLIC "-//W3C//DTD SVG 20010904//EN"
 "http://www.w3.org/TR/2001/REC-SVG-20010904/DTD/svg10.dtd">
<svg version="1.0" xmlns="http://www.w3.org/2000/svg"
 width="716.000000pt" height="655.000000pt" viewBox="0 0 716.000000 655.000000"
 preserveAspectRatio="xMidYMid meet">

<g transform="translate(0.000000,655.000000) scale(0.100000,-0.100000)"
fill="#000000" stroke="none">
<path d="M6762 6402 l-32 -3 2 -2687 3 -2687 195 0 195 -1 -190 6 -190 5 -3
2677 -2 2678 212 2 213 3 -185 5 c-102 3 -200 4 -218 2z"/>
<path d="M233 6393 l237 -3 0 -2680 0 -2680 -237 -3 -238 -2 243 -3 242 -2 0
2690 0 2690 -242 -2 -243 -3 238 -2z"/>
<path d="M5267 6356 c-21 -32 -21 -40 -1 -32 11 4 15 2 11 -6 -2 -7 -1 -42 3
-78 l7 -65 3 60 c2 33 2 68 1 79 -1 16 1 17 14 6 22 -18 20 8 -3 38 l-18 24
-17 -26z"/>
<path d="M1953 6348 c-24 -31 -27 -42 -10 -35 15 6 17 -2 17 -63 0 -38 5 -72
10 -75 6 -4 10 21 10 69 0 68 2 75 18 69 16 -7 16 -5 1 17 -19 29 -33 35 -46
18z"/>
<path d="M2258 6293 c-2 -5 -1 -37 3 -73 l6 -65 1 63 2 63 335 -3 c220 -2 334
0 332 7 -4 12 -674 19 -679 8z"/>
<path d="M3710 6235 c0 -37 4 -65 10 -65 6 0 10 25 10 55 l0 55 166 0 c107 0
163 3 159 10 -4 6 -73 10 -176 10 l-169 0 0 -65z"/>
<path d="M4270 6230 c0 -44 4 -69 10 -65 6 4 7 -1 3 -11 -5 -14 -2 -16 20 -12
15 3 28 0 30 -6 5 -14 34 9 40 32 2 9 3 6 2 -6 -2 -19 1 -23 16 -19 11 3 19 1
19 -4 0 -5 11 -4 24 1 17 6 26 5 28 -2 2 -6 11 -4 21 6 16 16 17 16 18 -1 0
-17 1 -17 8 1 7 18 8 18 14 2 5 -13 11 -15 25 -7 10 5 24 6 32 1 21 -13 30 -3
30 34 0 25 -5 35 -20 39 -11 3 -18 0 -17 -6 1 -6 -7 -11 -18 -11 -11 0 -23 -5
-27 -11 -5 -7 -8 -6 -8 1 0 15 -63 16 -72 1 -5 -8 -8 -8 -8 3 0 14 -20 16
-112 10 -5 0 -8 -9 -8 -20 0 -34 -17 -22 -24 18 -10 61 -7 82 10 82 9 0 12 -5
8 -12 -6 -10 -4 -10 7 -2 9 8 64 11 157 10 91 -1 141 3 139 9 -2 6 -72 11
-175 13 l-172 2 0 -70z m134 -55 c-4 -8 -8 -15 -10 -15 -2 0 -4 7 -4 15 0 8 4
15 10 15 5 0 7 -7 4 -15z m193 -5 c-1 -12 -5 -16 -10 -11 -5 5 -6 14 -3 20 11
16 15 13 13 -9z m-247 6 c0 -3 -4 -8 -10 -11 -5 -3 -10 -1 -10 4 0 6 5 11 10
11 6 0 10 -2 10 -4z m130 -6 c0 -5 -5 -10 -11 -10 -5 0 -7 5 -4 10 3 6 8 10
11 10 2 0 4 -4 4 -10z"/>
<path d="M4832 6233 l2 -68 3 58 4 57 170 0 c111 0 168 3 164 10 -4 6 -73 10
-176 10 l-169 0 2 -67z"/>
<path d="M5395 6290 c-4 -7 163 -10 494 -10 l501 0 0 -110 c0 -67 4 -110 10
-110 6 0 10 47 10 120 l0 120 -504 0 c-326 0 -507 -4 -511 -10z"/>
<path d="M580 5951 l0 -339 25 2 c14 0 25 5 25 9 0 5 5 5 11 1 8 -5 1002 -9
1152 -5 l27 1 0 335 0 335 -620 0 -620 0 0 -339z m681 222 c6 -16 3 -29 -10
-45 -16 -20 -22 -21 -45 -10 -26 11 -32 34 -20 67 10 25 65 16 75 -12z m319
17 c4 0 13 -14 19 -30 5 -17 6 -28 2 -25 -5 3 -11 -2 -15 -10 -3 -9 -18 -15
-39 -15 -29 0 -33 3 -35 29 -2 33 23 65 45 57 8 -3 18 -6 23 -6z m-646 -6 c26
-10 21 -63 -6 -73 -42 -16 -78 22 -58 60 11 19 35 24 64 13z m785 -206 c17
-43 -31 -85 -64 -58 -18 15 -19 52 -3 68 20 20 58 14 67 -10z m-722 -24 c-3
-3 -12 -4 -19 -1 -8 3 -5 6 6 6 11 1 17 -2 13 -5z m-198 -18 c15 -18 4 -64
-17 -68 -46 -10 -79 34 -52 67 16 19 54 19 69 1z m187 -134 c33 -23 11 -86
-28 -80 -28 4 -42 29 -34 61 6 27 37 36 62 19z m292 -14 c7 -7 12 -24 12 -39
0 -32 -28 -46 -60 -29 -35 19 -20 80 20 80 9 0 21 -5 28 -12z m336 -4 c9 -8
16 -22 16 -29 0 -19 -28 -45 -49 -45 -39 0 -57 60 -23 79 24 15 38 13 56 -5z
m-579 -64 c-3 -5 -12 -10 -18 -10 -7 0 -6 4 3 10 19 12 23 12 15 0z"/>
<path d="M3150 6175 c0 -85 3 -115 13 -115 9 0 11 27 9 109 l-3 110 28 4 c23
3 22 4 -9 6 l-38 1 0 -115z"/>
<path d="M3278 6283 c7 -3 16 -2 19 1 4 3 -2 6 -13 5 -11 0 -14 -3 -6 -6z"/>
<path d="M3348 6283 c12 -2 32 -2 45 0 12 2 2 4 -23 4 -25 0 -35 -2 -22 -4z"/>
<path d="M3448 6283 c6 -2 18 -2 25 0 6 3 1 5 -13 5 -14 0 -19 -2 -12 -5z"/>
<path d="M2932 6168 l-2 -97 -32 -4 -33 -4 33 -1 c19 -1 35 3 38 11 3 8 3 54
1 103 l-3 89 -2 -97z"/>
<path d="M3809 6223 c5 -26 6 -26 9 -5 4 27 22 30 22 3 0 -15 7 -19 36 -19 31
0 33 2 18 13 -16 11 -16 13 2 23 16 10 17 11 2 12 -9 0 -20 -4 -23 -10 -3 -5
-11 -10 -16 -10 -6 0 -7 5 -4 10 4 6 -6 10 -23 10 -27 0 -29 -2 -23 -27z"/>
<path d="M3920 6225 c0 -23 3 -27 10 -15 9 13 11 13 20 0 7 -12 10 -8 10 15 0
23 -3 27 -10 15 -9 -13 -11 -13 -20 0 -7 12 -10 8 -10 -15z"/>
<path d="M3230 6213 c0 -22 2 -23 15 -9 9 8 23 12 32 9 11 -4 14 -3 9 5 -4 7
-2 12 3 12 17 0 13 -18 -6 -30 -16 -10 -15 -11 5 -7 12 3 22 1 22 -4 0 -6 7
-6 18 -1 9 5 23 7 31 4 8 -3 11 0 7 7 -4 6 -3 11 2 11 5 0 9 6 9 14 0 10 -18
13 -74 13 -71 0 -73 0 -73 -24z m110 2 c0 -8 -4 -15 -10 -15 -5 0 -10 7 -10
15 0 8 5 15 10 15 6 0 10 -7 10 -15z"/>
<path d="M5877 6233 c-4 -3 -7 -13 -7 -21 0 -18 13 -7 16 13 2 17 1 18 -9 8z"/>
<path d="M5740 6215 c0 -6 13 -11 28 -11 16 0 29 5 29 11 0 6 -13 11 -29 11
-15 0 -28 -5 -28 -11z"/>
<path d="M5840 6221 c0 -6 5 -13 10 -16 6 -3 10 1 10 9 0 9 -4 16 -10 16 -5 0
-10 -4 -10 -9z"/>
<path d="M5906 6215 c4 -8 11 -15 16 -15 6 0 5 6 -2 15 -7 8 -14 15 -16 15 -2
0 -1 -7 2 -15z"/>
<path d="M4926 6181 c-3 -5 -15 -7 -26 -4 -16 4 -19 2 -14 -12 5 -12 9 -13 14
-5 5 9 9 9 14 1 12 -18 32 -12 32 9 0 21 -11 27 -20 11z"/>
<path d="M4970 6170 c0 -11 2 -20 4 -20 2 0 6 9 9 20 3 11 1 20 -4 20 -5 0 -9
-9 -9 -20z"/>
<path d="M5040 6168 c0 -12 3 -18 7 -14 11 10 12 36 2 36 -5 0 -9 -10 -9 -22z"/>
<path d="M5087 6171 c-3 -13 -1 -18 9 -14 7 2 10 11 7 19 -7 19 -10 18 -16 -5z"/>
<path d="M2484 6165 c-8 -20 2 -45 18 -44 10 0 10 2 1 6 -7 2 -13 13 -13 23 0
10 6 21 13 23 9 4 9 6 -1 6 -7 1 -15 -6 -18 -14z"/>
<path d="M2520 6150 c0 -22 5 -30 18 -30 14 0 15 2 2 10 -13 9 -13 11 0 20 11
7 16 5 18 -5 4 -18 22 -20 23 -2 0 6 4 3 9 -8 8 -21 8 -21 23 25 3 8 6 3 6
-12 1 -19 6 -28 17 -28 13 0 14 3 5 14 -9 11 -9 15 1 19 9 4 9 6 -2 6 -13 1
-13 2 0 11 12 8 11 10 -7 10 -12 0 -25 -5 -29 -11 -4 -8 -9 -7 -15 2 -7 11 -9
11 -9 1 0 -9 -5 -10 -19 -2 -32 16 -41 12 -41 -20z"/>
<path d="M2690 6172 c0 -18 12 -42 21 -42 5 0 9 7 9 15 0 20 17 19 29 -2 5
-10 13 -15 17 -11 4 4 2 14 -4 21 -7 8 -9 17 -5 20 10 10 -10 8 -27 -3 -9 -5
-19 -5 -27 2 -9 7 -13 7 -13 0z"/>
<path d="M2670 6153 c0 -12 5 -25 10 -28 13 -8 13 15 0 35 -8 12 -10 11 -10
-7z"/>
<path d="M5897 6149 c4 -13 8 -18 11 -10 2 7 -1 18 -6 23 -8 8 -9 4 -5 -13z"/>
<path d="M5927 6163 c-10 -9 -9 -23 1 -23 5 0 9 7 9 15 0 17 -1 18 -10 8z"/>
<path d="M3739 6133 c5 -26 6 -26 9 -5 2 12 8 22 13 22 5 0 9 -10 9 -22 0 -19
2 -20 10 -8 5 8 10 10 10 4 0 -7 18 -11 45 -10 25 0 45 3 45 7 0 4 3 14 6 23
4 12 0 16 -16 16 -11 0 -19 -4 -15 -9 3 -5 1 -12 -5 -16 -5 -3 -10 1 -10 9 0
23 -15 19 -28 -6 l-11 -23 0 23 c-1 18 -7 22 -35 22 -31 0 -33 -2 -27 -27z"/>
<path d="M3896 6143 c-4 -9 -2 -21 4 -27 7 -7 10 -2 10 17 0 31 -5 34 -14 10z"/>
<path d="M3922 6135 c0 -16 2 -22 5 -12 2 9 2 23 0 30 -3 6 -5 -1 -5 -18z"/>
<path d="M3941 6133 c0 -16 3 -22 6 -15 4 10 8 10 19 1 11 -9 14 -6 14 17 0
22 -3 26 -10 14 -6 -10 -10 -11 -10 -2 0 6 -4 12 -10 12 -5 0 -10 -12 -9 -27z"/>
<path d="M3997 6153 c-15 -15 -7 -43 13 -43 13 0 20 6 19 18 0 10 -3 12 -6 5
-7 -18 -23 -16 -23 1 0 8 8 17 18 19 14 4 14 5 1 6 -9 0 -19 -2 -22 -6z"/>
<path d="M5741 6144 c0 -11 3 -14 6 -6 3 7 2 16 -1 19 -3 4 -6 -2 -5 -13z"/>
<path d="M5760 6155 c0 -2 7 -8 15 -15 12 -10 15 -10 15 2 0 8 -7 15 -15 15
-8 0 -15 -1 -15 -2z"/>
<path d="M5807 6144 c7 -19 41 -25 39 -6 -2 8 -12 16 -23 17 -13 1 -19 -3 -16
-11z"/>
<path d="M5861 6144 c0 -11 3 -14 6 -6 3 7 2 16 -1 19 -3 4 -6 -2 -5 -13z"/>
<path d="M5951 6144 c0 -11 3 -14 6 -6 3 7 2 16 -1 19 -3 4 -6 -2 -5 -13z"/>
<path d="M2262 6108 c-2 -44 0 -48 21 -47 16 1 17 3 5 6 -12 3 -18 17 -21 46
l-4 42 -1 -47z"/>
<path d="M3200 6125 c0 -18 7 -21 40 -23 37 -3 40 -1 40 23 0 18 -5 25 -20 25
-18 0 -25 -11 -21 -33 1 -5 -3 -6 -8 -2 -6 3 -8 11 -5 19 3 7 -2 13 -11 13 -9
0 -15 -9 -15 -22z m70 0 c0 -8 -4 -15 -10 -15 -5 0 -10 7 -10 15 0 8 5 15 10
15 6 0 10 -7 10 -15z"/>
<path d="M3290 6125 c0 -23 3 -25 48 -24 37 1 51 7 65 25 16 22 16 23 -3 21
-13 -1 -20 -9 -21 -22 0 -19 -1 -19 -9 3 -5 12 -12 22 -15 22 -3 0 -10 -10
-15 -22 l-9 -23 0 23 c-1 33 -41 31 -41 -3z m30 0 c0 -8 -4 -15 -10 -15 -5 0
-10 7 -10 15 0 8 5 15 10 15 6 0 10 -7 10 -15z"/>
<path d="M4282 6105 c0 -16 2 -22 5 -12 2 9 2 23 0 30 -3 6 -5 -1 -5 -18z"/>
<path d="M4435 6070 l-160 -6 168 -2 c110 -1 166 1 162 8 -3 6 -7 9 -8 8 -1
-1 -74 -5 -162 -8z"/>
<path d="M2448 6063 c79 -2 205 -2 280 0 75 1 11 3 -143 3 -154 0 -216 -2
-137 -3z"/>
<path d="M3248 6063 c34 -2 88 -2 120 0 31 2 3 3 -63 3 -66 0 -92 -1 -57 -3z"/>
<path d="M3443 6063 c9 -2 23 -2 30 0 6 3 -1 5 -18 5 -16 0 -22 -2 -12 -5z"/>
<path d="M3803 6063 c48 -2 125 -2 170 0 45 1 6 3 -88 3 -93 0 -130 -2 -82 -3z"/>
<path d="M6510 5950 c0 -5 25 -10 55 -10 l55 0 0 -435 0 -436 -22 -8 c-13 -5
-27 -6 -31 -4 -5 3 -14 -3 -22 -13 -7 -11 -17 -15 -21 -11 -5 4 -2 12 6 17 13
8 12 10 -2 10 -13 0 -18 -8 -18 -30 0 -28 2 -30 35 -27 38 2 41 6 23 26 -9 9
-9 12 -1 7 6 -3 14 0 16 6 3 7 6 3 6 -9 1 -30 19 -38 24 -11 3 13 4 -151 3
-365 0 -213 2 -387 7 -387 4 0 7 380 7 845 l0 845 -60 0 c-33 0 -60 -4 -60
-10z"/>
<path d="M6405 5505 c0 -225 1 -319 2 -208 2 111 2 295 0 410 -1 114 -2 24 -2
-202z"/>
<path d="M2300 5729 l-65 -6 68 -1 67 -2 0 -160 0 -160 -56 0 c-34 0 -53 -4
-49 -10 8 -13 205 -13 225 0 11 7 -2 10 -42 10 l-58 0 0 160 0 160 58 1 c31 0
53 2 47 4 -21 7 -133 10 -195 4z"/>
<path d="M2938 5733 l-118 -4 0 -168 0 -169 116 -7 c64 -4 165 -4 225 0 l109
7 0 168 0 167 -82 6 c-46 4 -94 6 -108 5 -14 -1 -78 -4 -142 -5z m102 -173 l0
-159 -80 0 c-58 0 -78 4 -74 12 5 8 2 8 -7 0 -7 -7 -21 -13 -30 -13 -15 0 -17
16 -18 150 -1 83 1 155 4 160 3 5 51 9 105 9 l100 0 0 -159z m220 139 c0 -10
-7 -19 -15 -19 -8 0 -15 -4 -15 -10 0 -5 -7 -10 -16 -10 -14 0 -15 -2 -3 -17
12 -15 12 -16 -3 -11 -21 9 -31 -2 -16 -19 8 -11 7 -12 -6 -7 -9 3 -16 1 -16
-5 0 -7 -12 -22 -27 -35 -25 -21 -26 -26 -13 -41 14 -16 13 -17 -9 -10 -21 6
-23 5 -19 -13 4 -16 2 -19 -10 -15 -11 5 -14 2 -9 -11 4 -9 3 -15 -2 -12 -5 3
-10 60 -10 125 l-2 120 38 3 c21 2 64 4 96 5 50 1 57 -1 57 -18z m-2 -195 l-3
-99 -90 0 c-82 0 -90 2 -93 20 -3 20 -3 20 13 1 14 -18 20 -12 16 16 0 3 13
10 31 13 19 5 26 10 19 15 -12 7 6 34 57 85 12 12 22 27 22 34 0 6 5 11 11 11
5 0 7 6 3 13 -5 9 -4 9 5 1 8 -7 11 -43 9 -110z"/>
<path d="M2153 5615 c0 -66 2 -108 4 -94 3 21 9 26 24 22 13 -4 19 0 19 11 0
11 5 14 12 10 6 -4 8 -3 5 3 -4 6 3 13 14 16 12 3 18 10 14 16 -3 6 -1 11 6
11 8 0 7 5 -2 17 -13 15 -12 15 9 4 21 -11 22 -11 10 8 -16 26 -40 9 -34 -25
3 -17 0 -24 -11 -24 -9 0 -13 6 -9 15 3 8 1 15 -4 15 -6 0 -10 -7 -10 -15 0
-8 -7 -15 -16 -15 -14 0 -14 -3 -4 -15 7 -9 10 -18 6 -22 -13 -14 -21 12 -27
95 -6 85 -6 85 -6 -33z"/>
<path d="M3940 5698 c0 -18 -3 -70 -7 -115 l-6 -83 344 2 c221 1 299 4 217 7
-69 3 -130 9 -134 14 -4 4 -1 7 7 7 11 0 11 2 -1 10 -13 9 -13 10 0 10 8 1 4
6 -10 11 -16 7 -26 7 -28 0 -2 -6 -12 -7 -27 -1 -26 10 -66 2 -77 -14 -6 -8
-8 -8 -8 0 0 6 -10 12 -22 13 -13 0 -38 2 -56 4 -18 2 -35 0 -38 -4 -2 -4 -13
-5 -24 -2 -15 4 -20 0 -20 -16 0 -19 -6 -21 -50 -21 l-50 0 1 100 1 101 329
-3 c181 -2 329 0 329 5 0 4 -151 7 -335 7 l-335 0 0 -32z m187 -180 c-3 -7 -5
-2 -5 12 0 14 2 19 5 13 2 -7 2 -19 0 -25z"/>
<path d="M5720 5445 l0 -285 66 0 c41 0 63 4 59 10 -3 6 -28 10 -56 10 l-49 0
0 275 c0 177 -4 275 -10 275 -6 0 -10 -102 -10 -285z"/>
<path d="M2525 5654 c-14 -15 -24 -35 -23 -43 4 -18 21 -18 27 0 2 7 -1 9 -8
4 -9 -5 -9 -1 0 14 8 11 16 16 19 11 3 -5 11 -1 18 10 19 31 -5 34 -33 4z"/>
<path d="M2591 5654 c0 -11 3 -14 6 -6 3 7 2 16 -1 19 -3 4 -6 -2 -5 -13z"/>
<path d="M4164 5639 c-3 -6 -17 -8 -30 -5 -21 6 -24 3 -24 -23 0 -26 3 -29 40
-33 38 -3 40 -2 40 24 0 16 -5 28 -11 28 -5 0 -7 5 -4 10 3 6 4 10 1 10 -3 0
-8 -5 -12 -11z"/>
<path d="M4242 5632 c-40 -3 -43 -5 -40 -30 2 -20 8 -26 23 -25 11 2 34 4 50
6 23 2 29 7 27 22 -5 28 -11 30 -60 27z"/>
<path d="M2320 5620 c0 -5 6 -10 14 -10 8 0 17 -6 19 -12 4 -8 6 -7 6 3 1 9
-6 20 -15 23 -21 8 -24 8 -24 -4z"/>
<path d="M3515 5595 c-14 -13 -25 -28 -25 -33 0 -19 42 -62 61 -62 23 0 59 34
59 55 0 18 -44 65 -60 65 -6 0 -22 -11 -35 -25z"/>
<path d="M4832 5563 l-2 -63 63 2 62 2 -57 3 -57 4 -4 57 -3 57 -2 -62z"/>
<path d="M4881 5612 c-1 -7 -5 -10 -11 -7 -6 3 -7 -1 -3 -10 5 -13 7 -14 14
-3 7 10 9 10 9 -2 0 -13 2 -13 9 -1 7 11 10 10 14 -5 4 -15 5 -15 6 5 1 16 -3
22 -13 18 -8 -3 -17 -1 -20 6 -3 9 -5 8 -5 -1z"/>
<path d="M2292 5589 c-11 -17 -11 -23 0 -36 10 -13 9 -15 -7 -11 -11 2 -19 11
-17 19 3 11 1 12 -9 1 -11 -10 -10 -15 4 -29 16 -16 19 -15 47 12 28 27 36 49
16 45 -5 -1 -12 3 -15 9 -4 6 -12 2 -19 -10z m30 -21 c-9 -9 -15 -9 -24 1 -9
10 -9 12 -1 7 6 -3 15 -1 18 5 4 5 10 8 13 4 3 -3 0 -11 -6 -17z"/>
<path d="M5050 5598 c0 -20 -16 -24 -22 -6 -3 8 -7 6 -10 -4 -5 -12 -1 -15 18
-13 31 3 35 7 24 25 -8 13 -10 12 -10 -2z"/>
<path d="M5076 5595 c4 -8 8 -15 10 -15 2 0 4 7 4 15 0 8 -4 15 -10 15 -5 0
-7 -7 -4 -15z"/>
<path d="M5103 5591 c0 -11 5 -18 9 -15 4 3 5 11 1 19 -7 21 -12 19 -10 -4z"/>
<path d="M5131 5594 c0 -11 3 -14 6 -6 3 7 2 16 -1 19 -3 4 -6 -2 -5 -13z"/>
<path d="M2479 5590 c-1 -8 -1 -18 0 -22 0 -5 -3 -8 -8 -8 -12 0 -51 -62 -45
-72 10 -15 25 -8 34 17 5 14 14 25 19 25 14 0 23 52 12 63 -8 8 -11 7 -12 -3z"/>
<path d="M2231 5523 c-1 -15 -6 -21 -15 -17 -11 4 -13 0 -9 -15 7 -27 23 -38
23 -16 0 9 3 14 8 12 4 -3 13 1 20 9 10 12 10 14 -2 14 -8 0 -17 8 -19 18 -4
13 -5 12 -6 -5z"/>
<path d="M2152 5443 l-2 -53 48 2 47 1 -42 4 -42 4 -4 47 -3 47 -2 -52z"/>
<path d="M2404 5469 c-3 -6 -1 -16 5 -22 8 -8 11 -6 11 7 0 10 4 14 12 10 7
-4 8 -3 4 4 -9 15 -23 15 -32 1z"/>
<path d="M5611 5444 c-1 -6 6 -17 14 -24 12 -10 15 -9 15 4 0 10 -4 15 -9 12
-5 -4 -12 0 -14 6 -4 8 -6 9 -6 2z"/>
<path d="M5653 5428 c-2 -16 1 -18 10 -9 7 7 8 14 1 21 -6 6 -10 2 -11 -12z"/>
<path d="M580 5115 c0 -157 3 -285 8 -285 4 0 6 124 4 275 l-3 275 56 0 c30 0
55 5 55 10 0 6 -27 10 -60 10 l-60 0 0 -285z"/>
<path d="M2558 5393 c7 -3 16 -2 19 1 4 3 -2 6 -13 5 -11 0 -14 -3 -6 -6z"/>
<path d="M5762 5370 c0 -14 2 -19 5 -12 2 6 2 18 0 25 -3 6 -5 1 -5 -13z"/>
<path d="M5807 5376 c-3 -8 0 -17 8 -19 23 -10 50 0 54 18 3 18 2 18 -15 1
-16 -17 -19 -17 -30 -2 -10 14 -13 14 -17 2z"/>
<path d="M5887 5383 c-11 -10 -8 -20 7 -26 10 -4 12 0 9 14 -6 21 -7 22 -16
12z"/>
<path d="M1303 5305 c-3 -9 -3 -18 -1 -21 3 -3 8 4 11 16 6 23 -1 27 -10 5z"/>
<path d="M5826 5313 c-4 -4 -13 -8 -19 -9 -7 0 -20 -2 -29 -2 -22 -2 -24 -19
-3 -19 8 0 15 5 15 10 0 5 6 7 13 4 6 -3 19 -8 27 -11 11 -5 16 0 16 14 0 21
-7 25 -20 13z"/>
<path d="M5870 5297 c0 -11 1 -18 3 -16 1 2 8 11 15 20 9 13 9 16 -3 16 -8 0
-15 -9 -15 -20z"/>
<path d="M5910 5306 c0 -9 5 -16 10 -16 6 0 10 4 10 9 0 6 -4 13 -10 16 -5 3
-10 -1 -10 -9z"/>
<path d="M1257 5303 c-12 -12 -7 -22 8 -17 8 4 15 10 15 15 0 11 -14 12 -23 2z"/>
<path d="M1347 5293 c-10 -9 -9 -23 1 -23 5 0 9 7 9 15 0 17 -1 18 -10 8z"/>
<path d="M1144 5170 c0 -69 1 -99 3 -67 l4 57 159 0 160 0 0 -30 c0 -30 -7
-37 -26 -22 -5 4 -1 0 8 -10 10 -9 18 -21 18 -27 0 -5 5 -13 10 -16 6 -4 10
35 10 109 0 71 -4 116 -10 116 -5 0 -10 -22 -10 -49 0 -39 -4 -50 -19 -54 -16
-4 -254 -3 -288 1 -7 1 -13 25 -16 60 -2 31 -3 1 -3 -68z"/>
<path d="M4938 5114 l3 -165 -111 3 c-83 2 -110 0 -110 -9 0 -10 29 -13 110
-13 l110 0 0 -160 c0 -100 4 -160 10 -160 6 0 10 60 10 160 l0 160 105 0 c63
0 105 4 105 10 0 6 -42 10 -105 10 l-105 0 0 165 c0 125 -3 165 -12 165 -10 0
-12 -38 -10 -166z"/>
<path d="M775 5250 c-10 -16 3 -29 25 -23 16 4 17 7 5 19 -16 17 -22 17 -30 4z"/>
<path d="M726 5201 c-3 -5 2 -15 12 -22 15 -12 16 -12 5 2 -7 9 -10 19 -6 22
3 4 4 7 0 7 -3 0 -8 -4 -11 -9z"/>
<path d="M755 5200 c3 -5 8 -10 11 -10 2 0 4 5 4 10 0 6 -5 10 -11 10 -5 0 -7
-4 -4 -10z"/>
<path d="M5107 5186 c-8 -8 -17 -13 -20 -10 -2 3 -14 -6 -25 -20 -10 -14 -23
-22 -27 -18 -4 4 -5 -3 -2 -15 4 -20 3 -21 -15 -12 -18 10 -19 8 -13 -20 5
-25 3 -31 -10 -31 -13 0 -16 6 -12 21 4 16 3 19 -5 11 -6 -6 -8 -18 -5 -26 8
-20 47 -21 47 -1 0 8 4 15 8 15 5 0 19 8 30 18 12 9 33 25 47 35 14 10 22 23
19 29 -5 7 -1 9 9 5 21 -8 22 6 3 22 -11 9 -17 8 -29 -3z m-7 -42 c0 -8 -4
-12 -10 -9 -5 3 -10 10 -10 16 0 5 5 9 10 9 6 0 10 -7 10 -16z"/>
<path d="M2047 5168 c-7 -4 14 -8 46 -8 l57 0 -4 -117 c-2 -65 -5 -137 -5
-160 l-1 -43 -52 0 c-35 0 -48 -3 -39 -9 8 -5 59 -7 113 -6 108 4 148 15 55
15 l-57 0 0 160 0 160 57 0 c31 0 53 3 49 8 -10 9 -204 9 -219 0z"/>
<path d="M2707 5173 c-11 -10 -8 -221 3 -228 6 -4 10 33 10 104 l0 111 58 0
c40 0 53 3 42 10 -17 11 -103 14 -113 3z"/>
<path d="M4378 5145 c2 -14 6 -25 8 -25 2 0 4 11 4 25 0 14 -4 25 -9 25 -4 0
-6 -11 -3 -25z"/>
<path d="M4803 5142 c2 -32 29 -38 46 -10 9 14 8 18 -1 18 -9 0 -8 3 2 10 10
7 11 10 2 10 -7 0 -15 -7 -18 -15 -4 -8 -11 -15 -16 -15 -6 0 -8 7 -4 15 3 8
1 15 -4 15 -5 0 -8 -13 -7 -28z"/>
<path d="M4871 5138 c2 -31 2 -31 6 -5 2 15 8 27 13 27 5 0 10 -12 12 -27 3
-27 4 -27 9 5 5 28 3 32 -18 32 -20 0 -23 -5 -22 -32z"/>
<path d="M702 5130 c0 -14 2 -19 5 -12 2 6 2 18 0 25 -3 6 -5 1 -5 -13z"/>
<path d="M4054 4960 c0 -107 2 -158 3 -112 l4 82 159 0 160 0 0 -57 c0 -41 3
-54 10 -43 12 18 12 204 0 240 -6 18 -8 4 -9 -47 l-1 -73 -160 0 -159 0 -4
103 c-1 56 -3 14 -3 -93z"/>
<path d="M647 5100 c-17 -16 -17 -18 0 -31 16 -13 17 -12 4 4 -14 18 -8 22 29
18 9 -1 11 1 5 6 -5 5 -12 11 -15 14 -3 4 -13 -1 -23 -11z"/>
<path d="M2010 5116 c0 -2 7 -7 16 -10 8 -3 12 -2 9 4 -6 10 -25 14 -25 6z"/>
<path d="M1990 5103 c0 -6 7 -16 15 -23 13 -11 18 -11 28 0 10 10 9 11 -2 5
-9 -5 -19 -1 -28 10 -7 11 -13 14 -13 8z"/>
<path d="M4093 5093 c-3 -10 -7 -20 -9 -23 -1 -3 17 -5 39 -6 23 -1 36 1 30 3
-18 6 -16 33 1 33 7 0 16 -9 19 -20 5 -21 47 -29 47 -9 0 5 5 7 10 4 6 -3 10
3 10 14 0 12 -7 21 -15 21 -8 0 -15 -9 -15 -20 0 -11 -4 -20 -9 -20 -6 0 -8 9
-6 20 3 16 -2 20 -25 20 -17 0 -33 -7 -39 -17 -10 -17 -10 -17 -11 0 0 9 -5
17 -10 17 -6 0 -13 -8 -17 -17z"/>
<path d="M2101 5087 c2 -1 13 -9 24 -17 19 -14 19 -14 6 3 -7 9 -18 17 -24 17
-6 0 -8 -1 -6 -3z"/>
<path d="M1305 5069 c-4 -6 -5 -12 -2 -15 2 -3 7 2 10 11 7 17 1 20 -8 4z"/>
<path d="M1337 5059 c3 -11 -2 -19 -14 -22 -17 -4 -17 -5 0 -6 10 0 20 6 23
14 4 8 9 13 13 10 4 -2 8 2 8 10 0 7 -8 13 -17 12 -11 -1 -15 -7 -13 -18z"/>
<path d="M3080 5061 c0 -6 4 -13 10 -16 6 -3 7 1 4 9 -7 18 -14 21 -14 7z"/>
<path d="M3140 5055 c0 -9 6 -12 15 -9 8 4 15 7 15 9 0 2 -7 5 -15 9 -9 3 -15
0 -15 -9z"/>
<path d="M3181 5054 c0 -11 3 -14 6 -6 3 7 2 16 -1 19 -3 4 -6 -2 -5 -13z"/>
<path d="M3201 5054 c0 -11 3 -14 6 -6 3 7 2 16 -1 19 -3 4 -6 -2 -5 -13z"/>
<path d="M3281 5054 c0 -11 3 -14 6 -6 3 7 2 16 -1 19 -3 4 -6 -2 -5 -13z"/>
<path d="M3320 5059 c0 -4 7 -9 15 -13 9 -3 15 0 15 8 0 7 -7 13 -15 13 -8 0
-15 -4 -15 -8z"/>
<path d="M6402 5045 c0 -16 2 -22 5 -12 2 9 2 23 0 30 -3 6 -5 -1 -5 -18z"/>
<path d="M600 5054 c0 -1 6 -7 14 -13 10 -9 15 -8 19 2 3 8 -3 13 -14 13 -11
0 -19 -1 -19 -2z"/>
<path d="M1260 5050 c-9 -6 -10 -10 -3 -10 6 0 15 5 18 10 8 12 4 12 -15 0z"/>
<path d="M1970 5050 c0 -6 7 -10 15 -10 8 0 15 2 15 4 0 2 -7 6 -15 10 -8 3
-15 1 -15 -4z"/>
<path d="M6430 5030 c0 -22 5 -30 18 -30 14 0 15 2 2 10 -13 9 -13 10 0 10 13
0 13 1 0 10 -13 9 -13 11 0 20 13 8 12 10 -2 10 -13 0 -18 -8 -18 -30z"/>
<path d="M6490 5049 c0 -5 -4 -8 -9 -4 -6 3 -9 -3 -8 -14 0 -11 4 -18 8 -15 4
2 9 -2 12 -8 2 -7 4 2 5 20 0 17 -1 32 -4 32 -2 0 -4 -5 -4 -11z"/>
<path d="M2084 5043 c5 -9 0 -13 -15 -13 -22 0 -22 0 -3 -15 18 -14 17 -15
-11 -10 -16 3 -24 2 -17 -1 6 -3 10 -10 7 -15 -4 -5 4 -5 17 0 13 4 22 12 20
17 -2 4 4 11 13 14 16 5 16 7 -1 20 -11 9 -15 10 -10 3z"/>
<path d="M1220 5022 c0 -6 9 -12 20 -15 11 -3 20 -3 20 -1 0 2 -9 8 -20 14
-11 6 -20 7 -20 2z"/>
<path d="M1168 5013 c-20 -5 -23 -20 -8 -43 8 -12 10 -12 10 -1 0 8 7 11 19 8
14 -3 18 -1 14 9 -3 8 -10 11 -16 7 -6 -4 -8 0 -4 10 3 10 5 16 4 16 -1 -1
-10 -3 -19 -6z"/>
<path d="M2247 4984 c-3 -5 1 -14 8 -21 10 -9 17 -9 31 3 18 14 18 14 0 8 -10
-4 -21 -2 -26 6 -4 6 -10 8 -13 4z"/>
<path d="M2020 4970 c0 -6 -4 -8 -10 -5 -16 10 -11 -1 7 -16 9 -8 14 -9 10 -2
-4 6 -2 13 5 15 9 3 9 6 0 12 -7 4 -12 2 -12 -4z"/>
<path d="M6404 4625 c0 -187 2 -262 3 -167 2 95 2 248 0 340 -1 92 -3 14 -3
-173z"/>
<path d="M1990 4939 c0 -5 -4 -7 -10 -4 -16 10 -11 -1 7 -16 14 -12 16 -12 8
0 -6 11 -4 13 10 7 15 -5 16 -4 5 9 -15 18 -20 19 -20 4z"/>
<path d="M2214 4943 c4 -4 16 -8 28 -10 28 -4 18 6 -12 12 -12 2 -20 1 -16 -2z"/>
<path d="M5720 4785 l0 -165 -104 0 c-59 0 -108 -4 -111 -10 -4 -6 33 -10 104
-10 l111 0 0 -160 0 -159 -107 -4 c-60 -1 -13 -3 102 -3 116 0 168 2 118 3
l-93 4 0 159 0 160 110 0 c67 0 110 4 110 10 0 6 -43 10 -110 10 l-110 0 0
165 c0 103 -4 165 -10 165 -6 0 -10 -62 -10 -165z"/>
<path d="M4125 4871 c-3 -5 -1 -12 5 -16 6 -4 8 -10 5 -15 -3 -5 4 -8 15 -7
11 1 20 5 20 10 0 5 7 4 15 -3 8 -7 26 -10 40 -8 13 3 26 0 29 -6 2 -6 5 1 5
15 1 30 -14 39 -65 39 -24 0 -34 -5 -34 -16 0 -8 -5 -12 -10 -9 -6 4 -8 11 -5
16 4 5 2 9 -4 9 -5 0 -12 -4 -16 -9z m70 -11 c3 -6 -1 -7 -9 -4 -18 7 -21 14
-7 14 6 0 13 -4 16 -10z m37 -5 c0 -5 -5 -11 -11 -13 -6 -2 -11 4 -11 13 0 9
5 15 11 13 6 -2 11 -8 11 -13z"/>
<path d="M5144 4873 c4 -8 1 -13 -9 -13 -10 0 -13 -5 -9 -12 5 -7 3 -8 -6 -3
-8 5 -24 -5 -45 -28 -18 -20 -36 -33 -41 -29 -4 4 1 -5 12 -20 10 -14 21 -22
22 -17 2 5 10 9 18 9 9 0 12 5 9 10 -3 6 -1 10 6 10 8 0 7 5 -2 17 -13 15 -12
15 9 4 20 -11 23 -9 32 14 5 14 12 25 15 25 4 0 3 -4 0 -10 -3 -6 1 -7 9 -4
21 8 20 17 -6 40 -12 10 -18 13 -14 7z m-14 -53 c0 -5 -4 -10 -9 -10 -6 0 -13
5 -16 10 -3 6 1 10 9 10 9 0 16 -4 16 -10z m-50 -41 c0 -6 -4 -7 -10 -4 -5 3
-10 11 -10 16 0 6 5 7 10 4 6 -3 10 -11 10 -16z"/>
<path d="M4860 4800 c9 -17 14 -18 30 -8 18 12 19 13 2 20 -34 13 -44 10 -32
-12z"/>
<path d="M4835 4780 c5 -15 3 -18 -9 -14 -19 7 -21 -7 -3 -25 10 -11 8 -11
-12 -1 -23 12 -24 12 -18 -21 6 -30 5 -32 -6 -13 -11 20 -13 20 -30 4 -16 -16
-16 -18 5 -36 13 -10 17 -12 11 -4 -19 21 -15 32 7 20 16 -9 22 -8 26 4 3 8 3
20 -1 25 -3 6 0 8 8 5 8 -3 26 6 41 19 25 23 25 25 8 41 -25 22 -35 20 -27 -4z"/>
<path d="M4721 4774 c0 -11 3 -14 6 -6 3 7 2 16 -1 19 -3 4 -6 -2 -5 -13z"/>
<path d="M5813 4760 c-19 -30 -16 -35 22 -37 26 -2 35 1 35 12 0 8 -5 15 -11
15 -5 0 -7 5 -4 10 3 6 1 10 -4 10 -15 0 -14 -13 2 -29 10 -11 9 -13 -3 -9 -8
2 -17 14 -20 26 -5 22 -5 22 -17 2z"/>
<path d="M5010 4760 c0 -5 -6 -10 -14 -10 -26 0 -29 -21 -7 -44 l22 -21 5 22
c4 13 11 20 20 16 20 -7 17 4 -6 27 -11 11 -20 16 -20 10z m0 -41 c0 -6 -4 -7
-10 -4 -5 3 -10 11 -10 16 0 6 5 7 10 4 6 -3 10 -11 10 -16z"/>
<path d="M5560 4745 c0 -14 5 -25 11 -25 5 0 7 5 4 10 -3 6 0 10 7 10 10 0 9
3 -2 11 -13 9 -13 10 0 6 8 -2 14 -11 12 -21 -2 -12 5 -16 28 -16 20 0 30 5
30 15 0 8 -5 15 -11 15 -5 0 -7 -4 -4 -10 3 -5 1 -10 -4 -10 -17 0 -13 18 5
28 12 7 4 10 -30 10 -42 1 -46 -1 -46 -23z"/>
<path d="M5781 4743 c0 -25 1 -26 9 -8 12 27 12 35 0 35 -5 0 -10 -12 -9 -27z"/>
<path d="M5882 4745 c0 -16 2 -22 5 -12 2 9 2 23 0 30 -3 6 -5 -1 -5 -18z"/>
<path d="M4052 4740 c0 -14 2 -19 5 -12 2 6 2 18 0 25 -3 6 -5 1 -5 -13z"/>
<path d="M4720 4684 c0 -8 40 -44 48 -44 3 0 -5 11 -18 25 -24 26 -30 29 -30
19z"/>
<path d="M580 4445 c0 -96 3 -175 8 -175 4 0 6 33 4 74 -3 68 -2 74 15 72 10
-2 12 -1 5 1 -8 3 -12 13 -9 24 3 10 1 19 -4 19 -5 0 -9 32 -9 70 l0 70 55 0
c30 0 55 5 55 10 0 6 -27 10 -60 10 l-60 0 0 -175z"/>
<path d="M1260 4610 c0 -5 23 -10 50 -10 l50 0 0 -160 0 -160 -57 0 c-31 0
-54 -2 -51 -5 8 -8 228 -8 235 -1 4 3 -19 6 -50 6 l-57 0 0 160 0 160 56 0
c34 0 53 4 49 10 -4 6 -53 10 -116 10 -66 0 -109 -4 -109 -10z"/>
<path d="M2040 4610 c0 -5 23 -10 50 -10 28 0 50 -4 51 -10 0 -5 0 -30 0 -55
0 -25 0 -92 0 -149 l-1 -105 -52 -4 c-29 -2 1 -3 67 -3 66 0 94 1 63 3 l-58 4
0 34 c0 19 5 37 12 41 7 5 8 3 3 -6 -6 -9 -4 -11 5 -5 10 6 10 11 -3 20 -14
10 -17 32 -17 124 l0 111 56 0 c34 0 53 4 49 10 -4 6 -53 10 -116 10 -66 0
-109 -4 -109 -10z"/>
<path d="M2712 4553 l2 -68 3 58 4 57 55 0 c34 0 53 4 49 10 -3 6 -31 10 -61
10 l-54 0 2 -67z"/>
<path d="M3333 4613 l-63 -4 0 -169 0 -170 121 0 c111 0 121 -1 114 -17 -17
-40 -16 -52 4 -72 27 -27 55 -27 82 0 20 20 21 32 4 72 -6 15 0 17 59 17 l66
0 0 169 0 168 -92 7 c-89 6 -172 6 -295 -1z m135 -21 c8 -3 12 -26 12 -68 0
-60 -1 -64 -22 -64 -13 1 -47 0 -76 0 -29 0 -57 2 -62 5 -5 3 -16 -2 -24 -11
-15 -14 -16 -8 -16 66 l0 81 88 -2 c48 -1 93 -4 100 -7z m242 -62 c0 -66 -1
-70 -22 -71 -13 -1 -27 -1 -33 1 -11 2 -41 1 -100 -2 l-40 -2 -3 72 -3 72 101
0 100 0 0 -70z m-73 -115 c10 -1 17 -7 15 -14 -1 -7 2 -10 8 -6 6 3 8 10 5 14
-2 5 7 6 20 3 24 -4 25 -8 25 -69 l0 -64 -94 4 c-52 3 -98 7 -103 10 -4 3 -7
32 -5 64 l4 59 44 -2 c35 -2 44 1 44 14 0 15 2 15 10 2 5 -8 17 -15 27 -15z
m-236 -5 c84 3 80 7 78 -62 l-2 -63 -99 -3 -99 -3 3 68 c3 68 3 68 31 65 17
-2 27 1 27 10 0 11 2 11 9 0 5 -9 25 -13 52 -12z"/>
<path d="M1310 4553 c1 -21 15 -30 27 -18 10 10 9 14 -3 19 -20 8 -24 8 -24
-1z"/>
<path d="M5866 4544 c-4 -12 -2 -15 9 -11 8 4 17 2 20 -3 4 -6 -5 -10 -19 -10
-30 0 -32 -7 -11 -30 15 -16 14 -17 -12 -12 -25 5 -27 4 -14 -11 12 -15 11
-17 -3 -17 -9 0 -16 -8 -16 -20 0 -11 -6 -20 -12 -21 -7 0 0 -5 16 -10 32 -9
50 -4 22 7 -25 9 -19 26 7 19 17 -5 19 -4 7 4 -13 9 -12 11 4 11 11 0 16 3 13
7 -4 3 -2 12 5 20 6 7 8 16 5 19 -3 4 1 13 9 21 8 8 12 19 9 24 -4 5 0 9 7 10
7 0 4 4 -7 9 -29 12 -32 12 -39 -6z"/>
<path d="M693 4543 c4 -7 0 -13 -9 -15 -15 -3 -15 -4 1 -18 11 -8 16 -10 12
-3 -4 7 0 13 9 15 15 3 15 4 -1 18 -11 8 -16 10 -12 3z"/>
<path d="M2315 4540 c4 -6 11 -8 16 -5 14 9 11 15 -7 15 -8 0 -12 -5 -9 -10z"/>
<path d="M5624 4542 c3 -6 1 -14 -5 -18 -8 -4 -7 -9 2 -15 11 -7 11 -9 -2 -9
-19 0 -33 -26 -18 -35 5 -4 6 -11 3 -17 -4 -6 -10 -5 -15 3 -6 10 -9 8 -9 -8
0 -12 -5 -25 -12 -29 -7 -5 -5 -11 7 -21 27 -19 33 -16 28 11 -3 13 1 27 8 31
9 6 11 3 6 -8 -12 -31 2 -18 18 17 9 19 14 40 10 45 -3 6 0 11 7 11 9 0 9 3
-2 10 -13 8 -12 10 3 10 9 0 17 5 17 10 0 6 -4 10 -9 10 -5 0 -17 3 -27 7 -11
4 -15 3 -10 -5z m8 -67 c0 -5 -5 -11 -11 -13 -6 -2 -11 4 -11 13 0 9 5 15 11
13 6 -2 11 -8 11 -13z"/>
<path d="M1285 4531 c-3 -6 5 -15 17 -21 21 -10 21 -10 6 3 -10 8 -15 17 -11
20 3 4 4 7 0 7 -3 0 -8 -4 -12 -9z"/>
<path d="M795 4508 c6 -27 8 -28 21 -14 9 10 7 15 -7 24 -15 10 -17 8 -14 -10z"/>
<path d="M2060 4521 c0 -5 8 -15 18 -22 9 -7 14 -9 10 -5 -4 5 -4 14 2 20 6 8
3 12 -11 13 -10 1 -19 -2 -19 -6z"/>
<path d="M2851 4501 c-6 -10 -7 -21 -4 -25 3 -3 1 -6 -6 -6 -7 0 -10 -4 -6
-10 3 -5 12 -7 21 -3 11 4 12 9 3 19 -9 11 -7 14 10 14 13 0 21 6 21 16 0 14
-2 15 -17 3 -11 -10 -14 -10 -9 -1 4 6 5 12 2 12 -3 0 -10 -8 -15 -19z"/>
<path d="M756 4491 c-3 -5 1 -14 9 -21 10 -9 15 -9 15 -1 0 6 -5 11 -11 11 -5
0 -7 5 -4 10 3 6 4 10 1 10 -3 0 -7 -4 -10 -9z"/>
<path d="M2026 4472 c-2 -4 -1 -14 5 -22 7 -12 9 -12 9 4 0 12 5 16 15 12 8
-3 15 -1 15 4 0 12 -37 13 -44 2z"/>
<path d="M2250 4470 c-18 -12 -2 -12 25 0 13 6 15 9 5 9 -8 0 -22 -4 -30 -9z"/>
<path d="M630 4467 c0 -2 6 -10 14 -16 11 -9 16 -9 22 1 4 7 4 10 -1 6 -4 -4
-14 -3 -22 3 -7 6 -13 9 -13 6z"/>
<path d="M726 4451 c-4 -5 -2 -12 3 -15 5 -4 12 -2 15 3 4 5 2 12 -3 15 -5 4
-12 2 -15 -3z"/>
<path d="M1242 4434 c10 -10 20 -16 22 -13 3 3 -5 11 -17 18 -21 13 -21 12 -5
-5z"/>
<path d="M1410 4431 c0 -25 6 -27 13 -6 4 8 2 17 -3 20 -6 4 -10 -3 -10 -14z"/>
<path d="M1442 4430 c-17 -27 -15 -35 4 -16 8 9 14 21 12 26 -2 6 -9 1 -16
-10z"/>
<path d="M1522 4425 c0 -16 2 -24 5 -16 4 10 7 10 13 1 4 -7 8 -1 8 15 0 16
-4 22 -8 15 -6 -9 -9 -9 -13 1 -3 8 -5 1 -5 -16z"/>
<path d="M2245 4441 c-3 -5 -2 -12 3 -15 5 -3 9 1 9 9 0 17 -3 19 -12 6z"/>
<path d="M715 4420 c10 -11 20 -20 23 -20 3 0 -3 9 -13 20 -10 11 -20 20 -23
20 -3 0 3 -9 13 -20z"/>
<path d="M1206 4431 c-3 -4 3 -16 13 -25 15 -14 21 -15 27 -4 4 7 4 10 0 6
-10 -8 -36 14 -29 25 2 4 2 7 -1 7 -3 0 -7 -4 -10 -9z"/>
<path d="M1474 4420 c2 -18 28 -20 32 -2 1 7 0 8 -3 2 -7 -14 -21 -13 -26 3
-2 7 -3 6 -3 -3z"/>
<path d="M2817 4434 c7 -3 9 -13 6 -22 -4 -14 -3 -14 5 -2 12 16 7 30 -11 29
-9 0 -9 -2 0 -5z"/>
<path d="M690 4410 c0 -5 5 -10 11 -10 5 0 7 5 4 10 -3 6 -8 10 -11 10 -2 0
-4 -4 -4 -10z"/>
<path d="M2003 4408 c1 -7 -4 -12 -11 -10 -8 1 -11 -2 -7 -8 5 -8 11 -8 21 1
7 6 11 15 8 20 -8 13 -14 11 -11 -3z"/>
<path d="M2775 4400 c-3 -5 -3 -10 2 -10 4 0 2 -4 -6 -9 -7 -5 -9 -11 -4 -14
5 -3 14 3 21 13 7 11 8 21 2 25 -5 3 -11 1 -15 -5z"/>
<path d="M1193 4385 c4 -8 2 -17 -3 -20 -4 -3 -10 1 -13 7 -2 7 -7 10 -11 7
-3 -3 4 -14 16 -25 13 -10 20 -15 16 -10 -4 5 0 15 8 23 15 15 11 33 -8 33 -5
0 -8 -7 -5 -15z"/>
<path d="M4054 4215 c0 -99 1 -154 3 -122 l4 57 159 0 160 0 1 -67 c0 -47 3
-62 9 -48 12 28 12 227 0 245 -7 11 -10 -3 -10 -47 l0 -63 -160 0 -159 0 -4
113 c-1 61 -3 31 -3 -68z"/>
<path d="M5799 4376 c11 -14 11 -16 -4 -16 -14 0 -15 -3 -5 -15 7 -8 20 -15
29 -15 14 0 14 2 1 10 -13 8 -13 10 2 10 25 0 15 34 -12 38 -21 3 -22 2 -11
-12z"/>
<path d="M1944 4369 c-3 -6 -2 -15 3 -20 5 -5 9 -1 9 11 0 23 -2 24 -12 9z"/>
<path d="M5550 4370 c0 -10 41 -31 49 -24 5 5 -22 29 -37 32 -6 1 -12 -3 -12
-8z"/>
<path d="M670 4355 c-6 -8 -10 -19 -8 -24 1 -6 8 1 15 14 13 28 11 31 -7 10z"/>
<path d="M620 4336 c0 -2 8 -10 18 -17 15 -13 16 -12 3 4 -13 16 -21 21 -21
13z"/>
<path d="M4127 4275 c6 -31 23 -33 24 -2 1 18 3 16 9 -8 4 -16 8 -24 9 -18 1
13 27 13 49 0 7 -5 14 -2 18 7 3 9 13 16 21 16 10 0 13 -6 8 -17 -5 -14 -4
-15 6 -6 10 10 9 15 -1 28 -10 13 -9 15 8 15 15 0 22 -8 24 -27 3 -27 4 -27 9
5 5 29 3 32 -21 32 -14 0 -32 -6 -39 -12 -11 -10 -13 -10 -7 0 4 6 3 12 -3 12
-5 0 -12 -10 -14 -22 -4 -23 -5 -23 -11 -2 -6 16 -17 21 -50 23 -41 2 -43 1
-39 -24z"/>
<path d="M6448 4273 c28 -2 76 -2 105 0 28 2 5 3 -53 3 -58 0 -81 -1 -52 -3z"/>
<path d="M4761 4178 c-1 -20 4 -28 15 -28 12 0 14 4 7 13 -6 6 -13 19 -16 27
-3 9 -6 3 -6 -12z"/>
<path d="M4800 4174 c0 -19 5 -24 26 -24 14 0 23 4 19 10 -3 6 -1 10 4 10 6 0
11 -4 11 -8 0 -14 61 -7 70 8 8 13 10 12 10 -2 0 -21 16 -24 24 -5 5 10 7 10
12 0 14 -31 58 -7 46 25 -2 6 -13 12 -23 12 -10 0 -19 -6 -19 -12 0 -9 -4 -8
-10 2 -8 12 -10 12 -10 1 0 -9 -4 -10 -12 -4 -7 6 -43 10 -80 11 -65 0 -68 -1
-68 -24z m120 1 c0 -8 -7 -15 -15 -15 -8 0 -15 7 -15 15 0 8 7 15 15 15 8 0
15 -7 15 -15z m90 0 c0 -8 -4 -15 -10 -15 -5 0 -10 7 -10 15 0 8 5 15 10 15 6
0 10 -7 10 -15z"/>
<path d="M4216 4064 c-12 -12 -16 -12 -16 -2 0 10 -3 9 -11 -2 -8 -11 -12 -12
-16 -2 -9 22 -23 13 -23 -15 0 -20 3 -24 9 -14 7 11 9 11 14 0 4 -12 7 -11 16
1 6 8 11 10 11 5 0 -17 59 -17 75 -1 11 11 12 16 2 19 -9 4 -8 8 3 16 8 6 11
11 5 11 -5 0 -19 -11 -31 -26 -16 -17 -24 -21 -30 -13 -4 7 1 18 11 26 11 7
14 13 8 13 -7 0 -19 -7 -27 -16z"/>
<path d="M580 3885 c0 -96 3 -175 8 -175 4 0 6 74 4 165 l-3 165 56 0 c30 0
55 5 55 10 0 6 -27 10 -60 10 l-60 0 0 -175z"/>
<path d="M4722 3998 l-2 -68 115 0 c70 0 115 4 115 10 0 6 -43 10 -110 10
l-109 0 -4 58 -3 57 -2 -67z"/>
<path d="M6463 4053 l-63 -4 0 -334 0 -335 99 0 c55 0 106 -3 115 -6 14 -6 16
28 16 340 l0 346 -52 -2 c-29 -1 -81 -3 -115 -5z m7 -282 c0 -5 3 -18 6 -28 5
-15 4 -16 -5 -3 -10 13 -12 13 -22 0 -9 -13 -10 -12 -5 3 3 10 6 23 6 28 0 5
5 9 10 9 6 0 10 -4 10 -9z m25 0 c-3 -5 0 -13 6 -17 7 -4 9 -3 5 4 -3 6 -2 13
4 17 5 3 10 0 10 -7 0 -8 3 -9 8 -3 4 6 21 11 37 12 17 0 22 -1 13 -4 -10 -2
-18 -11 -18 -18 0 -7 8 -16 18 -18 9 -3 6 -4 -8 -3 -14 1 -31 5 -37 9 -8 5
-13 4 -13 -2 0 -13 -22 -10 -32 4 -11 15 -10 35 3 35 5 0 8 -4 4 -9z"/>
<path d="M6541 3754 c0 -11 3 -14 6 -6 3 7 2 16 -1 19 -3 4 -6 -2 -5 -13z"/>
<path d="M1360 3885 l0 -165 -112 0 c-61 0 -109 -3 -105 -6 3 -4 54 -6 112 -5
l105 2 0 -165 c0 -104 4 -166 10 -166 6 0 10 62 10 165 l0 164 113 4 112 3
-113 2 -114 2 2 28 c6 87 -1 302 -10 302 -6 0 -10 -62 -10 -165z"/>
<path d="M5508 3713 c-2 -186 -2 -413 0 -505 l2 -168 220 0 220 0 0 218 c1
279 -1 592 -2 615 -1 9 -9 17 -20 17 -10 0 -18 4 -18 9 0 4 10 6 23 4 21 -4
22 -3 19 71 l-4 76 -219 0 -218 0 -3 -337z m422 157 c11 -6 12 -12 4 -20 -13
-13 -44 -2 -44 16 0 16 18 18 40 4z m-23 -55 c-8 -9 -16 -10 -24 -3 -20 17
-15 26 11 21 20 -4 22 -8 13 -18z m-215 -27 c-6 -6 -19 -7 -29 -3 -12 5 -14 9
-5 12 6 3 9 9 6 15 -4 5 4 5 16 -2 15 -8 19 -15 12 -22z m201 -15 c-3 -6 -11
-9 -19 -6 -9 3 -14 -1 -14 -12 0 -10 5 -13 12 -9 7 4 8 3 4 -5 -4 -6 -12 -8
-18 -5 -7 5 -9 1 -5 -9 3 -9 0 -23 -8 -31 -8 -8 -15 -19 -15 -25 0 -6 -9 -15
-21 -21 -12 -7 -18 -18 -15 -26 3 -8 1 -14 -5 -14 -6 0 -7 -5 -4 -11 4 -6 -2
-5 -14 3 -23 14 -29 30 -8 22 10 -3 14 5 14 27 0 18 6 37 15 43 8 6 13 17 11
23 -3 7 6 17 20 22 27 11 42 38 24 44 -7 2 2 4 19 3 20 -1 30 -5 27 -13z
m-221 -10 c-6 -2 -10 -9 -7 -14 4 -5 -2 -6 -12 -2 -16 6 -16 5 -4 -11 17 -20
1 -42 -23 -33 -20 8 -21 36 -1 43 8 4 12 10 9 15 -3 5 7 9 23 8 15 0 22 -3 15
-6z m-49 -77 c12 2 16 2 10 -2 -7 -3 -13 -14 -13 -24 0 -10 -4 -22 -10 -25 -5
-3 -10 -1 -10 4 0 6 -4 11 -10 11 -6 0 -6 -10 0 -27 8 -23 8 -25 -2 -12 -7 9
-20 14 -28 11 -11 -4 -10 -1 3 12 9 10 14 22 11 28 -4 6 2 5 15 -1 21 -12 31
2 11 14 -5 3 -10 12 -9 18 0 9 2 9 5 1 3 -7 15 -10 27 -8z m275 -348 c19 -19
14 -38 -9 -38 -17 0 -20 -5 -16 -21 4 -16 2 -19 -10 -15 -12 5 -14 1 -11 -19
3 -15 1 -22 -5 -18 -6 4 -8 0 -4 -10 9 -23 -19 -43 -38 -27 -21 18 -19 29 10
40 14 5 25 15 25 22 0 9 -3 9 -11 -2 -9 -13 -10 -13 -5 0 3 8 9 23 12 33 4 9
13 17 21 17 8 0 11 5 8 10 -8 13 1 40 13 40 4 0 13 -5 20 -12z m-215 -25 c-7
-2 -19 -2 -25 0 -7 3 -2 5 12 5 14 0 19 -2 13 -5z m-8 -19 c9 3 13 2 10 -4 -3
-6 -13 -10 -21 -10 -8 0 -13 -4 -10 -8 6 -10 -30 -9 -40 1 -4 4 1 9 10 13 9 3
13 11 9 18 -4 6 1 5 10 -3 9 -7 24 -11 32 -7z m-38 -52 c-9 -2 -14 -8 -11 -14
4 -5 -4 -4 -17 2 -23 13 -24 12 -6 -7 16 -18 16 -22 2 -33 -12 -10 -18 -10
-30 0 -21 17 -31 5 -14 -16 13 -16 12 -16 -8 -3 -20 12 -21 15 -8 28 11 12 17
12 29 2 8 -7 21 -9 27 -5 9 5 7 11 -6 21 -12 8 -15 17 -9 22 12 12 46 19 59
12 6 -3 2 -7 -8 -9z m-82 -92 c18 -8 19 -9 1 -9 -13 -1 -16 -6 -12 -18 5 -15
4 -15 -9 1 -26 34 -19 43 20 26z"/>
<path d="M5907 3859 c7 -7 15 -10 18 -7 3 3 -2 9 -12 12 -14 6 -15 5 -6 -5z"/>
<path d="M5810 3720 c0 -5 6 -10 13 -11 6 0 2 -5 -10 -11 -26 -13 -31 -38 -7
-38 9 0 14 6 11 13 -3 7 4 19 14 26 11 6 17 16 14 21 -8 13 -35 13 -35 0z"/>
<path d="M5620 3726 c0 -9 7 -16 16 -16 9 0 14 5 12 12 -6 18 -28 21 -28 4z"/>
<path d="M5870 3326 c0 -9 7 -16 16 -16 9 0 14 5 12 12 -6 18 -28 21 -28 4z"/>
<path d="M5800 3211 c0 -11 26 -22 34 -14 3 3 3 10 0 14 -7 12 -34 11 -34 0z"/>
<path d="M4053 3985 c0 -27 2 -38 4 -22 2 15 2 37 0 50 -2 12 -4 0 -4 -28z"/>
<path d="M1549 3977 c6 -8 7 -18 3 -22 -4 -5 -2 -5 5 -1 14 8 6 36 -9 36 -7 0
-6 -5 1 -13z"/>
<path d="M4382 3970 c0 -14 2 -19 5 -12 2 6 2 18 0 25 -3 6 -5 1 -5 -13z"/>
<path d="M1290 3967 c0 -2 6 -10 14 -16 11 -9 16 -9 22 1 4 7 4 10 -1 6 -4 -4
-14 -3 -22 3 -7 6 -13 9 -13 6z"/>
<path d="M725 3938 l-20 -21 20 11 c11 6 27 16 35 22 13 9 13 10 0 9 -8 0 -24
-10 -35 -21z"/>
<path d="M1261 3943 c-1 -7 8 -17 19 -23 16 -9 18 -8 14 5 -3 8 -10 13 -14 10
-5 -3 -11 1 -13 7 -4 10 -6 10 -6 1z"/>
<path d="M2142 3768 l3 -173 54 -3 c30 -2 59 2 64 7 8 8 -6 11 -46 11 l-57 0
0 165 c0 106 -4 165 -10 165 -7 0 -10 -60 -8 -172z"/>
<path d="M2888 3933 c7 -3 16 -2 19 1 4 3 -2 6 -13 5 -11 0 -14 -3 -6 -6z"/>
<path d="M3423 3933 l57 -4 0 -92 c0 -51 -5 -99 -10 -107 -5 -8 -10 -10 -10
-5 0 6 -45 10 -115 10 -82 0 -115 -3 -115 -12 0 -6 9 -10 20 -8 11 2 20 0 20
-6 0 -5 9 -9 20 -9 11 0 20 6 20 13 0 9 3 8 9 -2 7 -11 9 -11 14 0 4 10 6 10
6 2 1 -7 13 -13 27 -13 14 0 23 4 20 8 -2 4 4 8 14 8 10 0 16 -4 14 -8 -3 -4
11 -6 30 -3 l36 4 0 -49 0 -50 -52 0 c-37 0 -49 -3 -41 -11 5 -5 34 -9 63 -7
l53 3 -2 88 c-2 98 -12 87 84 91 22 0 46 5 53 9 7 5 12 4 12 -2 0 -6 15 -10
33 -9 27 1 32 5 32 25 0 12 -4 23 -8 23 -13 0 -37 -27 -30 -34 4 -3 1 -6 -5
-6 -7 0 -12 9 -12 21 0 11 5 17 10 14 6 -3 10 -1 10 4 0 13 -17 14 -24 2 -3
-5 -27 -7 -53 -6 -44 3 -91 -14 -76 -28 3 -4 1 -7 -5 -7 -7 0 -12 7 -12 15 0
8 5 15 10 15 6 0 10 4 10 10 0 5 -7 7 -15 4 -12 -5 -15 4 -15 49 0 35 5 57 13
60 6 3 -24 5 -68 4 -65 -1 -70 -1 -22 -4z m155 -134 c-2 -6 -8 -10 -13 -10 -5
0 -11 4 -13 10 -2 6 4 11 13 11 9 0 15 -5 13 -11z m52 -5 c0 -17 -22 -14 -28
4 -2 7 3 12 12 12 9 0 16 -7 16 -16z"/>
<path d="M1240 3922 c0 -4 10 -13 23 -21 22 -14 22 -14 3 8 -20 22 -26 25 -26
13z"/>
<path d="M684 3882 c3 -6 -2 -12 -11 -14 -12 -2 -14 -6 -7 -11 7 -4 17 0 23 7
9 11 9 16 0 22 -7 4 -9 3 -5 -4z"/>
<path d="M2840 3883 c0 -5 -11 -21 -25 -37 -29 -33 -29 -37 -12 -56 10 -12 9
-12 -5 -1 -15 11 -19 11 -25 -5 -4 -11 -14 -25 -22 -32 -9 -8 -10 -11 -3 -7 7
4 11 1 10 -6 -2 -6 3 -14 10 -16 6 -3 12 2 12 11 0 9 4 16 9 16 6 0 20 18 32
40 13 22 30 40 38 40 13 1 13 2 -1 11 -10 5 -18 15 -18 21 0 6 7 5 17 -3 11
-10 14 -10 9 -1 -4 7 -2 12 6 12 9 0 9 3 -2 10 -18 12 -30 13 -30 3z m-10 -63
c0 -5 -2 -10 -4 -10 -3 0 -8 5 -11 10 -3 6 -1 10 4 10 6 0 11 -4 11 -10z"/>
<path d="M2243 3874 c4 -7 1 -17 -7 -23 -11 -9 -15 -9 -18 1 -3 8 -6 6 -11 -5
-9 -24 7 -29 29 -9 10 10 22 19 27 19 4 1 11 3 15 6 4 2 2 3 -4 1 -6 -1 -17 3
-24 9 -9 8 -11 9 -7 1z"/>
<path d="M2367 3859 c-3 -12 -10 -18 -16 -14 -7 4 -8 0 -4 -10 4 -12 8 -13 13
-5 6 9 9 9 13 -1 3 -8 6 1 6 19 1 37 -4 42 -12 11z"/>
<path d="M1203 3863 c4 -6 2 -13 -5 -15 -8 -3 -6 -6 4 -10 17 -7 19 15 3 29
-4 4 -5 3 -2 -4z"/>
<path d="M1443 3855 c4 -5 0 -16 -9 -26 -10 -11 -12 -19 -5 -24 6 -3 11 1 11
10 0 9 5 13 10 10 6 -3 10 1 10 9 0 8 -6 18 -12 22 -7 4 -10 3 -5 -1z"/>
<path d="M2076 3821 c-15 -17 -15 -19 1 -32 9 -8 14 -9 10 -2 -4 6 -1 14 5 16
10 4 9 6 -1 6 -11 1 -11 4 -1 16 18 22 6 19 -14 -4z"/>
<path d="M2315 3810 c6 -29 11 -34 18 -16 3 8 0 20 -8 26 -12 10 -13 8 -10
-10z"/>
<path d="M3254 3815 c-10 -26 4 -31 93 -33 88 -1 89 -1 89 23 0 14 -4 25 -8
25 -4 0 -8 -9 -8 -20 0 -22 -15 -27 -23 -7 -4 9 -8 8 -16 -3 -6 -8 -11 -10
-11 -5 0 6 5 16 10 21 7 7 1 11 -20 11 -16 0 -30 -5 -30 -10 0 -6 -5 -6 -12 0
-20 15 -58 13 -64 -2z m20 -10 c-4 -8 -8 -15 -10 -15 -2 0 -4 7 -4 15 0 8 4
15 10 15 5 0 7 -7 4 -15z m32 -12 c-10 -10 -19 5 -10 18 6 11 8 11 12 0 2 -7
1 -15 -2 -18z m40 0 c-10 -10 -19 5 -10 18 6 11 8 11 12 0 2 -7 1 -15 -2 -18z"/>
<path d="M3730 3795 c0 -14 4 -25 9 -25 4 0 6 11 3 25 -2 14 -6 25 -8 25 -2 0
-4 -11 -4 -25z"/>
<path d="M1400 3804 c0 -20 27 -37 36 -23 4 7 3 9 -4 5 -6 -3 -15 2 -21 11 -6
10 -11 13 -11 7z"/>
<path d="M2280 3791 c0 -7 -4 -9 -10 -6 -6 4 -7 -1 -3 -11 5 -13 3 -15 -7 -9
-8 5 -11 4 -7 -3 10 -14 -2 -42 -18 -42 -7 0 -16 5 -18 10 -3 6 -4 5 -3 -2 1
-7 10 -14 19 -16 16 -3 64 74 53 86 -3 3 -6 0 -6 -7z"/>
<path d="M2046 3772 c-2 -4 4 -8 14 -8 10 0 16 4 14 8 -3 4 -9 8 -14 8 -5 0
-11 -4 -14 -8z"/>
<path d="M2862 3753 c11 -14 10 -15 -8 -9 -23 7 -50 -16 -39 -33 4 -7 -1 -8
-12 -4 -16 6 -16 5 -4 -10 9 -12 18 -14 31 -7 9 5 20 7 24 5 3 -3 2 1 -4 7 -7
9 -2 18 17 33 26 22 26 22 4 28 -19 5 -20 3 -9 -10z m-12 -17 c0 -2 -7 -7 -16
-10 -8 -3 -12 -2 -9 4 6 10 25 14 25 6z"/>
<path d="M2038 3743 c7 -3 16 -2 19 1 4 3 -2 6 -13 5 -11 0 -14 -3 -6 -6z"/>
<path d="M2015 3720 c3 -5 11 -10 16 -10 6 0 7 5 4 10 -3 6 -11 10 -16 10 -6
0 -7 -4 -4 -10z"/>
<path d="M2711 3708 c0 -14 -5 -28 -10 -30 -5 -1 -3 -8 4 -15 10 -9 17 -5 34
18 21 29 21 49 -1 49 -7 0 -7 -4 1 -13 6 -8 8 -17 4 -20 -12 -13 -22 -7 -26
16 -4 19 -4 19 -6 -5z"/>
<path d="M3190 3721 c0 -10 19 -25 25 -20 1 2 -3 10 -11 17 -8 7 -14 8 -14 3z"/>
<path d="M4165 3710 c3 -5 29 -10 56 -10 l50 0 -3 -330 c-2 -267 0 -331 10
-335 24 -9 111 -5 117 5 4 6 -15 10 -49 10 l-56 0 0 335 0 335 -66 0 c-41 0
-63 -4 -59 -10z"/>
<path d="M4054 3370 c0 -184 2 -260 3 -167 2 92 2 242 0 335 -1 92 -3 16 -3
-168z"/>
<path d="M3712 3660 c0 -14 2 -19 5 -12 2 6 2 18 0 25 -3 6 -5 1 -5 -13z"/>
<path d="M1306 3633 c-11 -11 -6 -22 15 -34 13 -6 19 -7 15 -1 -3 6 -2 12 4
14 6 2 2 8 -9 15 -10 6 -22 9 -25 6z"/>
<path d="M1522 3615 c15 -16 20 -17 30 -6 11 11 10 13 0 7 -7 -4 -21 -2 -30 5
-15 12 -15 11 0 -6z"/>
<path d="M2710 3603 c0 -10 29 -13 111 -13 l110 0 -2 -50 c-2 -27 0 -53 4 -56
4 -4 7 22 7 59 l0 66 -115 3 c-87 2 -115 0 -115 -9z"/>
<path d="M1500 3600 c0 -5 5 -10 11 -10 5 0 7 5 4 10 -3 6 -8 10 -11 10 -2 0
-4 -4 -4 -10z"/>
<path d="M4950 3600 c0 -5 23 -10 50 -10 l50 0 0 -56 c0 -34 4 -53 10 -49 6 3
10 33 10 66 l0 59 -60 0 c-33 0 -60 -4 -60 -10z"/>
<path d="M1281 3595 c-2 -24 14 -33 29 -17 13 14 12 15 -2 9 -9 -3 -19 -1 -22
6 -2 7 -5 8 -5 2z"/>
<path d="M1480 3586 c0 -2 8 -10 18 -17 15 -13 16 -12 3 4 -13 16 -21 21 -21
13z"/>
<path d="M1466 3538 c6 -21 5 -22 -12 -8 -10 8 -16 10 -12 6 4 -5 -2 -18 -15
-29 -15 -14 -17 -18 -5 -14 9 3 19 3 21 -1 2 -4 2 -2 1 5 -2 7 1 15 6 18 6 4
10 0 10 -7 0 -8 5 -6 11 5 5 9 8 21 4 26 -3 5 1 12 7 14 8 3 5 6 -5 6 -15 1
-17 -4 -11 -21z"/>
<path d="M1238 3523 c6 -2 18 -2 25 0 6 3 1 5 -13 5 -14 0 -19 -2 -12 -5z"/>
<path d="M4455 3511 c4 -8 2 -17 -6 -22 -10 -6 -3 -9 20 -9 19 0 32 1 30 3 -2
1 -15 11 -28 22 -14 11 -21 14 -16 6z"/>
<path d="M1196 3492 c-3 -5 3 -17 13 -26 17 -15 18 -15 16 6 -2 23 -19 35 -29
20z"/>
<path d="M4156 3483 c-5 -13 2 -43 10 -43 13 0 45 40 40 49 -9 14 -44 10 -50
-6z"/>
<path d="M4120 3470 c0 -11 5 -20 10 -20 6 0 10 9 10 20 0 11 -4 20 -10 20 -5
0 -10 -9 -10 -20z"/>
<path d="M4426 3453 c-8 -19 1 -33 22 -33 13 0 13 2 -4 16 -18 15 -18 15 9 9
32 -6 29 9 -2 18 -12 3 -22 -1 -25 -10z"/>
<path d="M1171 3457 c2 -1 13 -9 24 -17 19 -14 19 -14 6 3 -7 9 -18 17 -24 17
-6 0 -8 -1 -6 -3z"/>
<path d="M4727 3423 c-20 -19 -4 -31 40 -30 26 0 42 2 35 5 -17 5 -15 22 3 22
8 0 15 -6 15 -13 0 -16 56 -21 65 -6 13 20 -13 35 -36 21 -12 -8 -18 -9 -15
-3 4 7 -10 10 -39 9 -26 0 -45 -5 -45 -12 0 -7 -3 -6 -8 2 -5 7 -11 9 -15 5z
m153 -13 c0 -5 -4 -10 -10 -10 -5 0 -10 5 -10 10 0 6 5 10 10 10 6 0 10 -4 10
-10z"/>
<path d="M4908 3408 c5 -21 6 -21 13 -2 7 16 8 17 8 2 1 -13 9 -18 29 -18 21
0 24 2 12 10 -12 8 -12 12 -2 18 8 6 -1 9 -27 10 -36 2 -39 0 -33 -20z"/>
<path d="M4991 3406 c0 -13 3 -16 6 -7 5 11 7 11 14 0 7 -11 9 -9 9 7 0 12 -6
21 -15 21 -9 0 -15 -9 -14 -21z"/>
<path d="M4410 3400 c9 -6 9 -9 -1 -14 -8 -3 -3 -3 11 0 19 4 22 3 10 -5 -8
-6 -23 -11 -34 -11 -11 0 -16 -5 -13 -14 3 -7 1 -18 -5 -24 -7 -7 -5 -10 7 -9
10 1 20 -4 23 -12 3 -10 -1 -13 -14 -9 -22 6 -50 -17 -34 -27 16 -10 12 -25
-5 -19 -8 4 -15 2 -15 -4 0 -13 29 -24 42 -16 5 3 7 12 4 20 -3 8 0 14 7 14 8
0 6 4 -3 10 -13 8 -12 10 3 10 16 0 40 38 41 65 1 6 7 16 14 23 19 21 15 27
-19 28 -17 1 -25 -2 -19 -6z m20 -54 c0 -2 -7 -7 -16 -10 -8 -3 -12 -2 -9 4 6
10 25 14 25 6z"/>
<path d="M2730 3383 c0 -15 -2 -16 -10 -3 -5 8 -10 11 -10 5 0 -17 14 -30 33
-32 12 -1 17 4 13 14 -3 8 -6 19 -6 24 0 5 -4 9 -10 9 -5 0 -10 -8 -10 -17z"/>
<path d="M2765 3390 c-3 -6 1 -13 10 -16 13 -6 14 -8 3 -15 -9 -6 -4 -8 15 -7
22 2 27 7 26 28 -1 18 -3 20 -6 7 -5 -19 -30 -17 -25 2 3 14 -15 15 -23 1z"/>
<path d="M2830 3370 c1 -24 1 -24 15 -6 13 18 20 15 16 -6 0 -5 6 -8 14 -8 17
0 20 16 5 25 -6 4 -8 10 -5 15 3 4 -6 7 -20 6 -20 -1 -25 -6 -25 -26z"/>
<path d="M580 3214 c0 -96 3 -174 8 -174 4 0 6 74 4 165 l-3 165 58 1 c67 1
61 6 -14 12 l-53 4 0 -173z"/>
<path d="M3423 3373 l57 -4 0 -159 0 -160 -51 0 c-31 0 -48 -4 -44 -10 3 -5
33 -10 65 -10 l60 0 -12 -25 c-9 -19 -8 -29 6 -50 36 -55 125 -10 98 50 -9 18
-8 26 1 32 7 5 -11 10 -43 13 l-55 5 -3 157 -3 157 63 4 c35 2 5 3 -67 3 -71
0 -104 -1 -72 -3z"/>
<path d="M4780 3343 c0 -19 6 -20 86 -19 70 1 87 4 95 19 8 13 6 17 -5 17 -8
0 -17 -6 -19 -12 -4 -10 -6 -10 -6 0 -1 18 -19 15 -24 -5 -4 -16 -5 -16 -6 -1
-1 13 -11 16 -46 16 -25 0 -45 -4 -45 -10 0 -6 -6 -6 -15 2 -12 10 -15 9 -15
-7z m70 3 c0 -3 -4 -8 -10 -11 -5 -3 -10 -1 -10 4 0 6 5 11 10 11 6 0 10 -2
10 -4z"/>
<path d="M3641 3312 c-7 -13 -5 -20 12 -30 20 -11 20 -12 -8 -6 -16 4 -27 3
-22 -2 11 -12 45 -15 51 -5 3 5 -1 14 -9 21 -8 7 -15 17 -15 23 0 5 9 2 20 -8
11 -10 20 -13 20 -7 0 7 8 12 17 12 24 0 13 6 -24 13 -25 5 -35 2 -42 -11z"/>
<path d="M3712 3280 c0 -14 2 -19 5 -12 2 6 2 18 0 25 -3 6 -5 1 -5 -13z"/>
<path d="M3320 3281 c0 -5 3 -16 6 -25 7 -19 34 -22 34 -3 0 8 4 7 10 -3 9
-13 11 -13 19 0 5 8 7 18 5 22 -3 4 0 8 5 8 6 0 11 -9 11 -21 0 -18 2 -19 15
-5 26 25 17 36 -29 36 -38 0 -45 -3 -49 -22 l-4 -23 -2 23 c-1 20 -21 33 -21
13z"/>
<path d="M6400 3101 l0 -170 116 -3 c64 -2 116 -2 117 -1 1 1 1 78 -1 172 l-3
171 -114 0 -115 0 0 -169z m60 -2 c0 -8 5 -8 15 1 12 10 18 10 30 0 9 -7 15
-8 15 -2 0 6 19 10 43 9 35 -2 42 -5 42 -22 0 -15 -7 -20 -28 -21 -15 -1 -30
3 -34 9 -3 5 -9 3 -14 -4 -7 -11 -9 -11 -9 1 0 13 -1 13 -11 0 -8 -13 -9 -12
-7 4 2 10 -3 21 -11 24 -10 3 -12 -1 -8 -17 7 -27 -4 -27 -21 -1 -16 26 -30
25 -35 -2 -4 -20 -4 -19 -6 5 -1 21 4 27 19 27 11 0 20 -5 20 -11z m0 -29 c0
-5 -5 -10 -11 -10 -5 0 -7 5 -4 10 3 6 8 10 11 10 2 0 4 -4 4 -10z"/>
<path d="M6542 3086 c7 -8 15 -12 17 -11 5 6 -10 25 -20 25 -5 0 -4 -6 3 -14z"/>
<path d="M6570 3085 c0 -8 7 -15 15 -15 8 0 15 7 15 15 0 8 -7 15 -15 15 -8 0
-15 -7 -15 -15z"/>
<path d="M741 3253 c-1 -7 -7 -13 -15 -13 -15 0 -16 -24 -1 -37 4 -4 5 -3 1 4
-3 6 1 16 10 21 9 5 14 15 11 23 -4 10 -6 10 -6 2z"/>
<path d="M3605 3249 c-8 -13 13 -39 31 -39 8 0 14 7 14 15 0 8 1 18 3 22 4 11
-42 13 -48 2z m35 -19 c0 -5 -7 -7 -15 -4 -8 4 -12 10 -9 15 6 11 24 2 24 -11z"/>
<path d="M3587 3204 c4 -11 3 -15 -5 -10 -14 8 -21 -4 -24 -43 -1 -17 -6 -31
-11 -31 -5 0 -5 10 -2 23 7 21 7 21 -8 2 -13 -17 -13 -21 2 -32 19 -15 35 -17
26 -3 -3 6 0 10 8 10 17 0 42 44 33 58 -3 6 0 12 6 14 8 3 5 9 -9 17 -20 10
-22 9 -16 -5z m1 -53 c-7 -9 -13 -17 -14 -19 0 -1 -1 12 -2 29 -1 25 2 28 14
18 11 -9 12 -15 2 -28z"/>
<path d="M654 3153 c2 -10 6 -17 10 -16 15 3 16 11 2 22 -12 10 -14 9 -12 -6z"/>
<path d="M2093 3152 l-163 -2 0 -300 c0 -276 1 -300 17 -300 13 0 14 3 5 12
-14 14 2 48 23 48 8 0 14 3 14 8 -4 25 1 33 15 20 11 -10 11 -16 2 -27 -9 -12
-7 -12 14 -2 21 10 22 10 9 -1 -8 -7 -18 -21 -22 -30 -3 -10 -12 -18 -18 -18
-8 0 -9 4 0 13 6 8 8 17 4 20 -14 14 -20 6 -20 -28 0 -20 -6 -41 -13 -48 -10
-10 -12 -8 -6 6 4 13 2 17 -6 15 -18 -6 -24 -838 -7 -838 6 0 8 7 5 16 -5 13
-2 15 15 11 20 -5 20 -5 3 14 -22 25 -16 31 22 20 16 -5 23 -10 15 -10 -8 -1
-11 -7 -7 -17 4 -11 -1 -18 -14 -21 -23 -6 -26 -19 -7 -26 9 -4 9 -6 0 -6 -7
-1 -10 -8 -7 -16 4 -8 1 -15 -6 -15 -6 0 -8 5 -5 10 3 6 1 10 -5 10 -6 0 -8 5
-5 10 3 6 2 10 -4 10 -5 0 -10 -65 -11 -165 l-1 -165 111 0 110 0 0 55 0 55
99 0 c55 0 106 3 115 6 14 6 16 89 16 839 l0 833 -62 4 c-35 1 -136 2 -225 0z
m62 -121 c-3 -5 -1 -12 5 -16 5 -3 10 2 10 12 0 15 2 16 10 3 9 -13 11 -13 20
0 7 12 10 8 10 -15 0 -23 -3 -27 -10 -15 -7 10 -13 11 -17 5 -5 -6 -27 -12
-50 -14 -40 -2 -43 -1 -43 23 0 23 4 26 36 26 19 0 33 -4 29 -9z m-71 -355
c-4 -9 -13 -15 -20 -12 -8 3 -11 0 -8 -8 8 -20 -14 -30 -31 -16 -20 16 -19 31
0 24 11 -5 13 -2 8 12 -5 14 -3 16 13 10 15 -5 16 -4 7 5 -6 6 -9 17 -6 25 4
10 9 9 24 -5 12 -11 17 -24 13 -35z m252 -121 c-2 -5 -8 -9 -14 -8 -5 1 -8 -6
-5 -17 3 -12 -1 -22 -10 -26 -9 -3 -13 -13 -10 -25 4 -15 0 -22 -16 -26 -16
-4 -20 -10 -15 -29 5 -19 2 -24 -12 -24 -16 0 -17 -2 -4 -11 12 -9 11 -10 -6
-6 -12 2 -21 -1 -21 -8 0 -8 7 -11 15 -7 10 3 13 1 8 -6 -4 -7 -14 -12 -22
-12 -17 0 -19 -16 -1 -24 6 -3 1 -3 -13 0 -20 5 -23 4 -12 -7 14 -15 16 -33 2
-24 -6 3 -7 -1 -4 -9 5 -12 0 -16 -17 -15 -13 0 -18 3 -11 6 10 4 10 8 1 19
-8 10 -8 14 0 14 6 0 10 3 10 8 -3 19 2 32 13 30 7 -2 13 7 14 20 1 12 2 29 3
38 1 12 8 15 29 10 22 -5 24 -4 10 4 -19 12 -25 40 -8 40 5 0 7 7 4 15 -4 8 1
17 10 21 11 4 14 13 11 25 -4 12 -1 21 9 25 9 3 13 10 11 15 -3 4 8 7 25 6 16
-1 28 -6 26 -12z m-196 -105 c0 -5 -7 -7 -15 -4 -8 4 -12 10 -9 15 6 11 24 2
24 -11z m-12 -23 c13 -16 -11 -57 -32 -57 -8 0 -13 -8 -12 -17 0 -10 -5 -17
-11 -15 -7 1 -13 -7 -13 -18 0 -11 -7 -20 -16 -20 -8 0 -13 -3 -10 -8 2 -4 -2
-15 -9 -25 -11 -16 -16 -16 -34 -5 -23 14 -22 34 1 32 10 -1 14 5 11 17 -6 22
16 26 36 7 11 -11 11 -9 2 9 -16 31 -14 35 11 27 20 -6 21 -5 9 10 -12 14 -11
16 3 16 10 0 14 4 11 10 -8 13 13 50 29 50 8 0 18 -6 24 -13z m202 -387 c13
-9 13 -10 0 -10 -13 0 -13 -1 0 -11 12 -8 9 -9 -12 -5 -22 5 -28 3 -28 -11 0
-15 2 -16 10 -3 7 11 10 11 10 2 0 -7 5 -10 10 -7 6 3 10 -1 10 -10 0 -12 -6
-15 -22 -10 -22 6 -22 5 -5 -9 18 -14 17 -15 -12 -31 -32 -16 -34 -35 -4 -35
9 0 13 6 9 15 -3 8 -1 15 4 15 21 0 8 -30 -19 -46 -30 -18 -32 -34 -4 -34 10
0 13 6 8 18 -5 14 -4 15 7 4 11 -11 10 -16 -6 -28 -11 -8 -16 -14 -10 -14 5 0
2 -5 -6 -10 -13 -9 -13 -11 0 -20 17 -11 1 -13 -25 -4 -13 5 -14 9 -3 15 11 7
10 11 -2 19 -8 5 -10 10 -5 10 6 0 11 8 12 18 7 76 18 106 36 95 7 -4 7 0 -1
10 -11 13 -11 22 -1 52 13 36 23 42 49 25z m-320 -204 c0 -8 6 -17 13 -20 6
-3 1 -4 -13 -3 -28 2 -42 37 -16 37 9 0 16 -6 16 -14z m-5 -36 c11 -5 14 -9 7
-9 -7 -1 -10 -5 -7 -11 8 -12 -15 -13 -34 -1 -7 5 -10 14 -7 20 8 13 13 13 41
1z m115 -4 c0 -7 -9 -16 -20 -19 -11 -3 -18 -1 -14 4 3 5 1 9 -5 9 -5 0 -12
-4 -15 -9 -7 -11 22 -23 35 -16 5 4 6 -1 3 -9 -4 -11 -12 -13 -30 -6 -15 6
-24 6 -24 0 0 -6 6 -10 14 -10 8 0 18 -5 21 -10 4 -7 -2 -9 -19 -4 -19 5 -26
2 -26 -9 0 -10 7 -13 20 -10 14 4 20 0 20 -11 0 -9 -5 -16 -11 -16 -5 0 -7 5
-4 10 9 15 -9 12 -31 -6 -10 -8 -13 -13 -6 -9 6 3 12 2 12 -4 0 -6 7 -8 15 -5
11 5 13 2 9 -10 -7 -19 -9 -19 -36 -5 -16 9 -19 8 -13 -2 5 -7 4 -10 -3 -6
-10 7 -5 47 7 47 4 0 7 9 8 21 3 36 38 84 61 83 12 0 22 3 22 8 0 4 2 8 5 8 3
0 5 -6 5 -14z m124 -31 c19 -15 19 -15 -5 -15 -21 -1 -22 -2 -6 -11 24 -14 21
-45 -5 -52 -12 -4 -24 -4 -27 -2 -2 3 2 5 10 5 11 0 11 2 1 9 -16 9 -6 61 12
61 6 0 4 5 -4 10 -8 5 -10 10 -5 10 6 -1 19 -7 29 -15z m-8 -100 c-13 -10 -15
-15 -6 -15 10 0 9 -5 -3 -18 -10 -10 -14 -22 -10 -25 3 -4 2 -7 -4 -7 -6 0
-16 6 -22 14 -9 11 -8 15 6 21 17 7 17 8 -2 15 -19 8 -19 8 5 18 39 17 59 14
36 -3z m-191 -36 c11 -16 -2 -22 -32 -14 -26 7 -26 8 -8 15 28 12 33 12 40 -1z
m150 -59 c7 0 16 6 18 13 4 7 6 6 6 -4 1 -9 -5 -19 -11 -21 -22 -8 -38 3 -37
25 1 17 2 18 6 5 2 -10 11 -18 18 -18z"/>
<path d="M2116 3012 c-2 -4 4 -9 15 -9 11 -1 17 2 14 8 -7 11 -22 12 -29 1z"/>
<path d="M2280 2526 c0 -9 7 -16 16 -16 9 0 14 5 12 12 -6 18 -28 21 -28 4z"/>
<path d="M2262 2479 c2 -6 8 -10 13 -10 5 0 11 4 13 10 2 6 -4 11 -13 11 -9 0
-15 -5 -13 -11z"/>
<path d="M2091 2416 c-9 -10 -7 -17 6 -27 17 -13 17 -13 3 5 -14 18 -13 19 3
13 11 -4 17 -2 17 8 0 19 -14 19 -29 1z"/>
<path d="M2212 1718 c6 -18 28 -21 28 -4 0 9 -7 16 -16 16 -9 0 -14 -5 -12
-12z"/>
<path d="M630 3136 c0 -2 8 -10 18 -17 15 -13 16 -12 3 4 -13 16 -21 21 -21
13z"/>
<path d="M3712 3085 c0 -16 2 -22 5 -12 2 9 2 23 0 30 -3 6 -5 -1 -5 -18z"/>
<path d="M1370 3040 c0 -5 23 -10 50 -10 l50 0 0 -50 c0 -27 5 -50 10 -50 6 0
10 27 10 60 l0 60 -60 0 c-33 0 -60 -4 -60 -10z"/>
<path d="M3658 3043 c7 -3 16 -2 19 1 4 3 -2 6 -13 5 -11 0 -14 -3 -6 -6z"/>
<path d="M1142 2930 c0 -19 2 -27 5 -17 2 9 2 25 0 35 -3 9 -5 1 -5 -18z"/>
<path d="M1185 2939 c-4 -5 -4 -13 -1 -16 3 -4 6 0 7 8 0 8 4 6 9 -6 7 -16 9
-17 9 -3 1 21 -15 32 -24 17z"/>
<path d="M1220 2931 c0 -11 4 -22 9 -25 4 -3 6 6 3 19 -5 30 -12 33 -12 6z"/>
<path d="M1267 2929 c4 -13 8 -18 11 -10 2 7 -1 18 -6 23 -8 8 -9 4 -5 -13z"/>
<path d="M1300 2931 c0 -11 4 -22 9 -25 4 -3 6 6 3 19 -5 30 -12 33 -12 6z"/>
<path d="M1342 2930 c0 -14 2 -19 5 -12 2 6 2 18 0 25 -3 6 -5 1 -5 -13z"/>
<path d="M6463 2823 l-63 -4 0 -169 0 -170 115 0 115 0 0 175 0 175 -52 -2
c-29 -1 -81 -3 -115 -5z m13 -162 c-4 -6 -13 -11 -19 -11 -7 0 -6 4 3 11 11 8
12 12 3 16 -7 2 -13 10 -13 16 0 6 7 4 16 -5 9 -9 13 -21 10 -27z m44 24 c0
-8 5 -15 10 -15 6 0 10 7 10 15 0 20 16 19 24 -1 9 -24 7 -41 -3 -25 -8 12
-12 12 -25 2 -12 -10 -16 -11 -16 -1 0 7 -7 10 -15 6 -17 -6 -18 -4 -9 18 8
20 24 21 24 1z m90 6 c0 -5 3 -18 6 -28 6 -16 5 -16 -9 2 -12 14 -16 16 -17 6
0 -8 -2 -12 -5 -9 -8 7 5 38 16 38 5 0 9 -4 9 -9z"/>
<path d="M2717 2813 c-4 -3 -7 -11 -7 -17 0 -7 3 -6 8 1 6 9 67 13 227 16
l220 2 -221 3 c-121 1 -224 -1 -227 -5z"/>
<path d="M4050 2595 l0 -225 505 0 505 0 0 225 0 225 -505 0 -505 0 0 -225z
m80 108 c0 -20 -3 -24 -9 -14 -7 11 -9 11 -14 0 -3 -8 -6 -2 -6 14 -1 18 4 27
14 27 10 0 15 -10 15 -27z m24 0 c-7 -39 -14 -42 -14 -5 0 18 4 32 9 32 5 0 7
-12 5 -27z m69 7 l4 25 2 -26 c1 -23 -3 -27 -24 -25 -27 1 -29 5 -18 31 5 15
8 14 19 -6 l12 -23 5 24z m67 -21 c0 -3 -7 -6 -15 -6 -9 0 -15 10 -15 26 0 24
1 24 15 5 8 -10 15 -22 15 -25z m45 24 c-2 -10 -4 -25 -5 -33 -1 -10 -4 -9
-10 5 -6 13 -9 15 -9 5 -1 -13 -2 -13 -11 0 -14 22 -12 33 5 26 8 -3 15 -1 15
4 0 6 4 10 9 10 5 0 8 -8 6 -17z m125 7 c7 12 10 8 10 -15 0 -23 -3 -27 -10
-15 -9 13 -11 13 -20 0 -7 -12 -10 -8 -10 15 0 23 3 27 10 15 9 -13 11 -13 20
0z m32 -19 c2 -17 1 -28 -4 -25 -8 5 -12 54 -4 54 2 0 6 -13 8 -29z m41 9 c6
21 9 22 17 10 16 -24 11 -37 -12 -35 -17 1 -24 9 -25 26 l-2 24 8 -25 7 -25 7
25z m62 -9 c-7 -22 -25 -29 -25 -11 0 12 23 40 28 35 2 -2 1 -13 -3 -24z m50
8 c-6 -33 -15 -36 -15 -6 0 15 4 27 9 27 6 0 8 -10 6 -21z m117 14 c-10 -4
-10 -8 -1 -19 10 -12 9 -17 -1 -27 -10 -9 -11 -9 -5 2 4 7 2 17 -5 21 -14 9
-5 30 13 29 8 0 8 -2 -1 -6z m48 -33 c0 -4 -7 -7 -15 -7 -10 0 -15 10 -15 26
1 25 1 25 15 7 8 -11 15 -23 15 -26z m34 19 c6 18 10 21 17 10 15 -23 10 -34
-15 -35 -26 -2 -41 20 -29 39 4 7 10 2 13 -13 l6 -25 8 24z m117 -7 c0 -12 3
-10 10 6 11 27 32 25 34 -4 1 -17 -5 -20 -37 -19 -39 0 -42 3 -32 29 7 19 24
11 25 -12z m71 3 c-2 -14 -6 -25 -8 -25 -2 0 -4 11 -4 25 0 14 4 25 9 25 4 0
6 -11 3 -25z m-416 -11 c-4 -9 -9 -15 -11 -12 -3 3 -3 13 1 22 4 9 9 15 11 12
3 -3 3 -13 -1 -22z m61 -6 c-3 -7 -5 -2 -5 12 0 14 2 19 5 13 2 -7 2 -19 0
-25z m237 16 c3 -9 6 -17 6 -18 0 -1 -9 -2 -20 -2 -11 0 -20 1 -20 2 0 11 14
34 20 34 4 0 11 -7 14 -16z m-494 -239 c0 -6 -9 -11 -19 -11 -11 0 -18 3 -17
6 2 3 6 14 10 25 6 16 9 17 16 5 6 -8 10 -20 10 -25z m30 25 c-10 -6 -11 -10
-2 -10 6 0 12 -7 12 -15 0 -8 -8 -15 -17 -15 -14 0 -15 2 -4 9 9 6 10 11 2 15
-13 9 -5 26 12 26 7 0 6 -4 -3 -10z m41 1 c-9 -6 -11 -16 -7 -27 6 -15 4 -16
-5 -7 -14 14 -5 43 13 43 10 0 9 -3 -1 -9z m40 2 c-11 -5 -11 -7 0 -14 11 -7
11 -9 1 -9 -7 0 -10 -4 -7 -10 3 -5 1 -10 -4 -10 -6 0 -11 11 -11 25 0 17 5
25 18 24 12 0 13 -2 3 -6z m30 -30 c-9 -16 -10 -14 -11 12 0 21 3 26 11 18 8
-8 8 -16 0 -30z m29 11 c0 -14 -4 -23 -9 -20 -5 3 -7 15 -4 26 7 28 13 25 13
-6z m47 10 c3 -8 1 -20 -5 -26 -8 -8 -9 -5 -5 11 3 11 1 21 -5 21 -6 0 -13
-10 -15 -22 -4 -20 -4 -19 -6 5 -1 30 25 39 36 11z m28 -5 c-6 -33 -15 -36
-15 -6 0 15 4 27 9 27 6 0 8 -10 6 -21z m60 -4 c0 -22 -37 -29 -41 -7 -1 7 0
8 3 2 7 -15 33 -12 33 4 0 8 -8 17 -17 20 -14 4 -14 4 2 3 13 -2 20 -10 20
-22z"/>
<path d="M5397 2813 c-4 -3 -7 -105 -7 -225 l0 -218 340 0 340 0 -2 223 -3
222 -331 3 c-182 1 -333 -1 -337 -5z m71 -93 c-11 -17 -10 -22 2 -31 13 -9 13
-10 0 -6 -20 5 -26 37 -8 48 19 12 20 11 6 -11z m112 -20 c5 0 10 7 10 16 0
21 24 12 28 -11 3 -11 0 -15 -7 -10 -7 4 -18 1 -26 -5 -11 -10 -15 -10 -15 -1
0 7 -4 9 -10 6 -6 -4 -10 6 -9 22 0 27 1 27 9 6 5 -13 14 -23 20 -23z m-74 18
c0 -7 4 -13 9 -13 6 0 9 6 8 14 -1 10 2 10 10 2 8 -8 7 -15 -3 -26 -19 -18
-46 -4 -37 19 8 19 15 21 13 4z m150 -8 c0 -9 -6 -17 -13 -17 -7 0 -13 8 -13
17 0 9 6 17 13 17 7 0 13 -8 13 -17z m290 -20 c0 -12 -4 -16 -9 -11 -5 5 -6
14 -3 20 10 15 12 14 12 -9z m71 -27 c-3 -10 -5 -2 -5 17 0 19 2 27 5 18 2
-10 2 -26 0 -35z m-226 -3 c6 0 7 5 4 10 -3 6 1 10 10 10 9 0 14 4 11 8 -2 4
3 8 13 8 12 0 17 -6 13 -18 -3 -12 1 -18 12 -18 10 0 14 5 11 10 -3 6 0 10 9
10 8 0 16 6 19 13 6 16 13 8 21 -23 6 -19 5 -22 -3 -10 -7 10 -14 11 -18 5 -9
-13 -75 -16 -67 -4 8 13 -10 11 -23 -2 -16 -16 -33 -2 -32 24 2 22 2 22 6 0 2
-13 9 -23 14 -23z m192 -2 c6 -4 -4 -6 -22 -6 -25 1 -29 3 -17 10 9 5 17 17
17 26 1 13 2 12 6 -3 3 -11 10 -23 16 -27z m-83 -167 c0 -5 3 -18 6 -28 6 -16
5 -16 -9 2 -16 19 -16 19 -17 1 0 -11 -3 -17 -6 -13 -8 8 5 47 17 47 5 0 9 -4
9 -9z m27 -28 c-3 -10 -5 -4 -5 12 0 17 2 24 5 18 2 -7 2 -21 0 -30z m53 -5
c0 -4 -7 -5 -15 -2 -8 4 -15 16 -15 28 1 21 1 21 15 2 8 -11 15 -23 15 -28z
m19 15 c0 -25 -1 -26 -9 -8 -12 27 -12 35 0 35 6 0 10 -12 9 -27z m-191 5
c-10 -6 -10 -10 2 -18 8 -5 11 -10 6 -10 -5 0 -18 8 -29 18 -19 16 -20 16 -14
0 4 -10 2 -18 -3 -18 -6 0 -10 9 -10 19 0 15 7 19 31 19 20 -1 26 -4 17 -10z
m52 -8 c0 -11 -7 -20 -15 -20 -8 0 -15 9 -15 20 0 11 7 20 15 20 8 0 15 -9 15
-20z m-418 -15 c3 -14 1 -25 -3 -25 -5 0 -9 11 -9 25 0 14 2 25 4 25 2 0 6
-11 8 -25z m56 2 c4 -21 -27 -35 -38 -17 -12 19 0 42 19 38 9 -2 17 -11 19
-21z m40 16 c-10 -2 -18 -11 -18 -19 0 -17 16 -19 23 -1 3 7 6 5 6 -5 1 -12
-6 -18 -19 -18 -13 0 -20 7 -20 18 0 23 9 32 29 31 13 -1 13 -2 -1 -6z m60 0
c-10 -2 -18 -11 -18 -18 0 -7 8 -16 18 -18 9 -3 5 -4 -10 -4 -21 1 -28 6 -28
22 0 16 7 21 28 22 15 0 19 -1 10 -4z m60 -16 c4 -22 -27 -35 -38 -16 -10 15
7 42 24 36 6 -2 12 -11 14 -20z m23 -14 c-9 -16 -10 -14 -11 12 0 21 3 26 11
18 8 -8 8 -16 0 -30z m39 10 c0 -22 -2 -25 -10 -13 -8 12 -10 12 -10 1 0 -8
-3 -12 -6 -9 -6 6 13 48 21 48 3 0 5 -12 5 -27z"/>
<path d="M5467 2464 c-8 -8 1 -24 14 -24 5 0 9 7 9 15 0 15 -12 20 -23 9z"/>
<path d="M5627 2464 c-8 -8 1 -24 14 -24 5 0 9 7 9 15 0 15 -12 20 -23 9z"/>
<path d="M3151 2703 l-1 -103 -215 0 -215 0 0 62 c0 43 -3 59 -11 51 -5 -5 -9
-36 -7 -67 l3 -58 118 1 c64 0 169 0 232 1 l115 0 -1 53 c-1 28 -4 77 -9 107
-6 49 -7 44 -9 -47z"/>
<path d="M2888 2753 l6 -28 7 25 c6 22 7 23 8 4 1 -19 7 -21 41 -20 41 1 47 9
30 36 -7 12 -11 10 -18 -10 -9 -23 -9 -23 -14 -2 -5 16 -14 22 -36 22 -27 0
-29 -2 -24 -27z"/>
<path d="M3004 2759 c1 -34 26 -34 26 0 0 19 -3 22 -9 12 -7 -11 -9 -11 -14 0
-2 8 -4 2 -3 -12z"/>
<path d="M584 2711 c-2 -2 -4 -83 -4 -179 0 -97 3 -173 6 -169 3 3 5 80 4 171
l-1 165 58 3 58 3 -58 5 c-32 3 -61 3 -63 1z"/>
<path d="M790 2620 c-9 -6 -10 -10 -3 -10 6 0 15 5 18 10 8 12 4 12 -15 0z"/>
<path d="M756 2598 c5 -7 2 -9 -8 -5 -12 4 -14 1 -11 -13 3 -10 0 -21 -6 -24
-6 -4 -11 -12 -11 -19 0 -6 11 5 25 25 28 41 30 48 14 48 -5 0 -7 -5 -3 -12z"/>
<path d="M3492 2483 l-2 -123 110 0 110 0 0 -57 c0 -40 3 -54 11 -46 5 5 9 34
7 64 l-3 54 -112 3 -112 3 -4 112 -3 112 -2 -122z"/>
<path d="M675 2509 c4 -5 1 -18 -6 -27 -11 -13 -8 -12 9 2 26 23 26 22 6 30
-9 3 -12 2 -9 -5z"/>
<path d="M1261 2498 c-1 -10 -5 -18 -11 -18 -5 0 -10 -5 -10 -12 0 -8 6 -7 16
4 9 9 14 22 11 30 -4 9 -6 7 -6 -4z"/>
<path d="M1430 2485 c0 -14 2 -25 4 -25 2 0 6 11 8 25 3 14 1 25 -3 25 -5 0
-9 -11 -9 -25z"/>
<path d="M1486 2495 c-9 -23 -8 -25 9 -25 17 0 19 9 6 28 -7 11 -10 10 -15 -3z"/>
<path d="M2931 2488 c-1 -18 4 -28 13 -28 20 0 29 17 15 26 -8 4 -9 3 -5 -4 4
-7 3 -12 -3 -12 -5 0 -12 10 -14 23 -4 19 -4 18 -6 -5z"/>
<path d="M1340 2496 c0 -4 7 -14 15 -22 8 -9 15 -11 15 -6 0 5 -7 15 -15 22
-8 7 -15 9 -15 6z"/>
<path d="M1411 2484 c0 -11 3 -14 6 -6 3 7 2 16 -1 19 -3 4 -6 -2 -5 -13z"/>
<path d="M1461 2484 c0 -11 3 -14 6 -6 3 7 2 16 -1 19 -3 4 -6 -2 -5 -13z"/>
<path d="M3013 2485 c-3 -9 -3 -19 1 -22 3 -4 6 1 6 11 0 10 5 14 12 10 7 -4
8 -3 4 4 -10 16 -15 15 -23 -3z"/>
<path d="M3152 2495 c4 -4 3 -14 -3 -22 -7 -8 -8 -13 -1 -13 15 0 23 28 9 36
-7 4 -9 4 -5 -1z"/>
<path d="M2986 2475 c-3 -8 -1 -15 4 -15 6 0 10 7 10 15 0 8 -2 15 -4 15 -2 0
-6 -7 -10 -15z"/>
<path d="M3050 2481 c0 -10 19 -25 25 -20 1 2 -3 10 -11 17 -8 7 -14 8 -14 3z"/>
<path d="M3112 2475 c-11 -12 -10 -15 3 -15 8 0 15 7 15 15 0 18 -2 18 -18 0z"/>
<path d="M2712 2460 c0 -14 2 -19 5 -12 2 6 2 18 0 25 -3 6 -5 1 -5 -13z"/>
<path d="M2791 2464 c0 -11 3 -14 6 -6 3 7 2 16 -1 19 -3 4 -6 -2 -5 -13z"/>
<path d="M2841 2464 c0 -11 3 -14 6 -6 3 7 2 16 -1 19 -3 4 -6 -2 -5 -13z"/>
<path d="M645 2450 c-3 -6 1 -7 9 -4 18 7 21 14 7 14 -6 0 -13 -4 -16 -10z"/>
<path d="M2871 2404 c0 -11 3 -14 6 -6 3 7 2 16 -1 19 -3 4 -6 -2 -5 -13z"/>
<path d="M3012 2395 c0 -16 2 -22 5 -12 2 9 2 23 0 30 -3 6 -5 -1 -5 -18z"/>
<path d="M3060 2397 c0 -15 4 -27 9 -27 6 0 8 10 6 21 -6 33 -15 36 -15 6z"/>
<path d="M3100 2395 c0 -14 4 -25 9 -25 4 0 6 11 3 25 -2 14 -6 25 -8 25 -2 0
-4 -11 -4 -25z"/>
<path d="M2750 2400 c0 -5 5 -10 11 -10 5 0 7 5 4 10 -3 6 -8 10 -11 10 -2 0
-4 -4 -4 -10z"/>
<path d="M3037 2391 c-4 -17 -3 -21 5 -13 5 5 8 16 6 23 -3 8 -7 3 -11 -10z"/>
<path d="M1140 2370 c0 -6 43 -10 110 -10 l110 0 0 -325 0 -325 -110 0 c-67 0
-110 -4 -110 -10 0 -6 43 -10 110 -10 l110 0 0 -165 c0 -103 4 -165 10 -165 7
0 10 173 10 500 l0 500 110 0 c67 0 110 4 110 10 0 6 -83 10 -230 10 -147 0
-230 -4 -230 -10z"/>
<path d="M3613 2300 c2 -8 12 -16 23 -17 13 -2 15 -1 4 4 -8 3 -19 11 -23 17
-6 7 -7 6 -4 -4z"/>
<path d="M6463 2263 l-63 -4 0 -169 0 -170 115 0 115 0 0 175 0 175 -52 -2
c-29 -1 -81 -3 -115 -5z m91 -79 c18 -7 22 -34 5 -34 -5 0 -8 -3 -6 -8 3 -4
-3 -25 -14 -46 -10 -22 -19 -44 -19 -49 0 -5 -10 -29 -21 -53 -20 -39 -24 -41
-45 -32 -25 12 -32 28 -12 28 6 0 9 3 5 6 -3 3 -1 19 5 35 8 25 13 27 30 18
11 -6 22 -8 25 -6 2 3 -4 10 -15 16 -18 10 -19 15 -9 46 6 19 14 35 19 35 5 0
6 5 3 10 -3 6 -1 10 4 10 6 0 10 3 10 8 -4 23 6 27 35 16z"/>
<path d="M6510 2120 c0 -5 5 -10 11 -10 5 0 7 5 4 10 -3 6 -8 10 -11 10 -2 0
-4 -4 -4 -10z"/>
<path d="M6495 2090 c3 -5 10 -10 16 -10 5 0 9 5 9 10 0 6 -7 10 -16 10 -8 0
-12 -4 -9 -10z"/>
<path d="M3577 2199 c7 -7 15 -10 18 -7 3 3 -2 9 -12 12 -14 6 -15 5 -6 -5z"/>
<path d="M3133 2185 c-10 -10 -9 -14 3 -19 8 -3 13 -2 9 3 -3 5 0 11 7 13 7 3
8 7 3 10 -6 3 -15 0 -22 -7z"/>
<path d="M1307 2159 c7 -7 15 -10 18 -7 3 3 -2 9 -12 12 -14 6 -15 5 -6 -5z"/>
<path d="M584 2151 c-7 -8 -4 -341 4 -341 4 0 6 74 4 164 l-3 165 58 3 58 3
-58 5 c-32 3 -61 3 -63 1z"/>
<path d="M3015 2151 c-3 -5 -2 -12 3 -15 5 -3 9 1 9 9 0 17 -3 19 -12 6z"/>
<path d="M3103 2150 c2 -8 12 -16 23 -17 13 -2 15 -1 4 4 -8 3 -19 11 -23 17
-6 7 -7 6 -4 -4z"/>
<path d="M815 2140 c3 -5 11 -10 16 -10 6 0 7 5 4 10 -3 6 -11 10 -16 10 -6 0
-7 -4 -4 -10z"/>
<path d="M3540 2146 c0 -2 7 -6 15 -10 8 -3 15 -1 15 4 0 6 -7 10 -15 10 -8 0
-15 -2 -15 -4z"/>
<path d="M4270 1925 l0 -225 280 0 279 0 3 108 3 107 63 3 64 3 -6 62 c-3 34
-7 86 -8 114 l-3 53 -337 0 -338 0 0 -225z m290 84 c0 -10 5 -19 11 -19 5 0 9
10 7 23 -2 18 2 22 25 23 16 1 32 -6 37 -15 8 -14 9 -14 10 2 0 9 5 17 10 17
6 0 10 -8 10 -17 0 -15 1 -15 13 2 13 17 15 16 24 -12 11 -29 10 -30 -26 -30
-20 0 -54 -1 -76 -2 -70 -5 -72 -4 -67 29 5 32 22 32 22 -1z m-34 -160 c5 -3
44 -5 87 -4 42 0 77 -3 77 -7 0 -5 -4 -8 -10 -8 -14 0 -12 -27 3 -33 6 -3 -6
-4 -28 -4 -22 1 -43 6 -47 12 -5 6 -8 5 -8 -3 0 -16 -71 -14 -82 3 -5 6 -8 6
-8 -2 0 -7 -5 -13 -11 -13 -5 0 -8 4 -5 8 2 4 0 14 -6 22 -8 12 -9 12 -4 -2 3
-10 1 -20 -4 -23 -6 -4 -10 3 -10 14 0 25 -6 26 -26 7 -11 -11 -11 -16 -1 -19
6 -3 -5 -6 -25 -6 -24 -1 -38 4 -38 12 0 8 -4 7 -10 -3 -7 -11 -10 -7 -10 18
0 32 14 43 23 20 4 -10 8 -9 16 2 6 8 11 12 11 8 0 -3 11 -3 25 0 27 8 76 8
91 1z"/>
<path d="M4550 1814 c0 -8 5 -12 10 -9 6 3 10 10 10 16 0 5 -4 9 -10 9 -5 0
-10 -7 -10 -16z"/>
<path d="M5397 2063 c-6 -76 -1 -353 6 -360 2 -2 153 -6 335 -9 l331 -6 2 78
c2 110 2 144 0 267 l-1 107 -334 0 -333 0 -6 -77z m323 -32 c0 9 11 14 30 14
20 0 29 -4 26 -12 -3 -7 -1 -15 4 -18 6 -4 10 0 10 8 0 9 15 14 45 16 31 1 45
-2 45 -11 0 -10 2 -10 9 0 7 11 10 10 15 -3 3 -9 4 -20 1 -25 -8 -13 -199 -9
-207 4 -4 6 -8 20 -8 31 1 20 1 20 15 1 11 -14 15 -16 15 -5z m-47 -9 c-5 -22
-43 -47 -53 -35 -4 4 -11 18 -15 31 -6 20 -3 22 33 22 34 0 39 -3 35 -18z m77
-233 c0 -10 5 -19 10 -19 6 0 10 -4 10 -9 0 -15 -71 -10 -77 5 -4 12 -8 11
-19 -3 -13 -17 -13 -17 -14 4 0 12 -6 25 -12 30 -8 5 4 10 32 13 56 7 70 3 70
-21z"/>
<path d="M5826 2021 c-4 -7 -5 -15 -2 -18 9 -9 19 4 14 18 -4 11 -6 11 -12 0z"/>
<path d="M5632 2010 c0 -14 2 -19 5 -12 2 6 2 18 0 25 -3 6 -5 1 -5 -13z"/>
<path d="M5713 1793 c-18 -7 -16 -23 2 -23 8 0 15 7 15 15 0 8 -1 15 -2 14 -2
0 -9 -3 -15 -6z"/>
<path d="M1295 2121 c-6 -11 13 -26 22 -17 4 3 0 6 -8 6 -11 0 -11 2 1 10 9 6
10 10 3 10 -6 0 -14 -4 -18 -9z"/>
<path d="M2999 2121 c10 -7 8 -12 -10 -26 -14 -10 -17 -15 -7 -12 9 3 19 3 21
-1 2 -4 2 -1 1 6 -2 7 3 15 12 19 13 5 13 7 2 14 -7 5 -17 9 -23 9 -5 0 -4 -4
4 -9z"/>
<path d="M3540 2106 c7 -7 13 -7 20 0 6 6 3 10 -10 10 -13 0 -16 -4 -10 -10z"/>
<path d="M2706 2101 c-10 -15 5 -41 22 -41 13 0 13 2 -3 13 -10 8 -15 19 -11
25 4 7 5 12 2 12 -3 0 -7 -4 -10 -9z"/>
<path d="M2758 2092 c-4 -12 1 -18 13 -18 14 0 15 4 8 18 -5 10 -11 18 -13 18
-2 0 -6 -8 -8 -18z"/>
<path d="M2800 2085 c0 -14 4 -25 9 -25 4 0 6 11 3 25 -2 14 -6 25 -8 25 -2 0
-4 -11 -4 -25z"/>
<path d="M2830 2091 c0 -11 4 -22 9 -25 4 -3 6 6 3 19 -5 30 -12 33 -12 6z"/>
<path d="M2873 2094 c-3 -8 0 -21 6 -27 9 -9 11 -8 5 7 -4 11 -2 21 7 27 10 6
11 9 1 9 -7 0 -15 -7 -19 -16z"/>
<path d="M790 2093 c0 -5 4 -14 9 -21 6 -10 10 -9 14 7 3 14 0 21 -9 21 -8 0
-14 -3 -14 -7z"/>
<path d="M3060 2096 c0 -2 9 -6 20 -9 11 -3 18 -1 14 4 -5 9 -34 13 -34 5z"/>
<path d="M1270 2070 c0 -5 7 -7 15 -4 8 4 15 8 15 10 0 2 -7 4 -15 4 -8 0 -15
-4 -15 -10z"/>
<path d="M3042 2055 c-8 -10 -9 -15 -2 -15 6 0 9 -4 5 -9 -3 -5 -2 -12 2 -14
5 -3 9 8 9 24 1 16 1 29 0 29 0 -1 -7 -7 -14 -15z"/>
<path d="M760 2050 c12 -8 13 -10 1 -10 -8 0 -12 -2 -9 -5 7 -7 38 5 38 14 0
4 -10 8 -22 8 -18 2 -20 0 -8 -7z"/>
<path d="M1249 2011 c12 -8 13 -12 1 -25 -11 -14 -10 -16 3 -11 8 4 17 15 20
26 4 14 0 19 -16 19 -17 0 -19 -2 -8 -9z"/>
<path d="M2997 1980 c-9 -11 -13 -21 -9 -23 11 -6 45 30 34 36 -4 4 -16 -3
-25 -13z"/>
<path d="M1490 1923 c0 -21 3 -24 9 -14 5 8 7 20 4 28 -8 21 -13 15 -13 -14z"/>
<path d="M659 1923 c-13 -16 -12 -17 4 -4 16 13 22 8 18 -13 -1 -5 5 -4 13 4
9 7 16 15 16 18 0 3 -3 2 -7 -1 -3 -4 -12 -2 -18 3 -9 7 -17 5 -26 -7z"/>
<path d="M1461 1923 c7 -12 15 -20 18 -17 3 2 -3 12 -13 22 -17 16 -18 16 -5
-5z"/>
<path d="M1400 1921 c0 -6 4 -13 10 -16 6 -3 7 1 4 9 -7 18 -14 21 -14 7z"/>
<path d="M6620 1431 l0 -281 -110 0 c-67 0 -110 -4 -110 -10 0 -6 45 -10 115
-10 l114 0 3 286 c2 157 0 288 -4 291 -5 2 -8 -122 -8 -276z"/>
<path d="M3527 1682 c-19 -21 -21 -45 -7 -73 10 -19 4 -19 -345 -19 l-355 0 0
-225 0 -225 449 0 448 0 5 78 c3 42 3 143 0 225 l-5 147 -60 0 c-48 0 -58 3
-49 12 18 18 14 63 -6 81 -24 22 -55 21 -75 -1z m-445 -189 c-10 -4 -10 -8 -1
-19 9 -12 9 -18 0 -27 -10 -9 -11 -8 -6 4 4 10 1 20 -4 24 -14 8 -5 25 12 24
8 0 8 -2 -1 -6z m74 -21 c-5 -13 -15 -19 -31 -18 -24 1 -37 16 -14 16 5 0 7 5
4 10 -3 6 -1 10 4 10 6 0 11 -8 12 -17 0 -14 3 -13 11 5 13 26 23 22 14 -6z
m28 -10 c-8 -8 -18 -11 -22 -7 -4 4 -1 10 6 12 6 3 12 12 12 21 0 14 2 14 9 3
6 -9 4 -19 -5 -29z m40 23 c-4 -8 -2 -15 4 -15 6 0 12 6 14 12 3 7 7 3 10 -9
4 -14 1 -20 -8 -19 -21 3 -37 23 -30 35 10 16 16 13 10 -4z m53 -22 c-3 -10
-5 -4 -5 12 0 17 2 24 5 18 2 -7 2 -21 0 -30z m24 0 c-9 -16 -10 -14 -11 12 0
21 3 26 11 18 8 -8 8 -16 0 -30z m67 30 c-10 -2 -18 -14 -19 -26 0 -12 -3 -16
-6 -9 -8 20 5 42 24 41 17 -1 17 -2 1 -6z m-38 -30 c0 -21 -3 -24 -9 -14 -5 8
-7 20 -4 28 8 21 13 15 13 -14z m41 -16 c-10 -9 -11 -8 -5 6 3 10 9 15 12 12
3 -3 0 -11 -7 -18z m-284 -181 c-9 -22 5 -28 19 -8 12 15 15 15 24 2 7 -12 10
-12 10 -1 0 7 6 11 14 8 8 -3 29 -2 46 3 40 11 60 4 61 -24 1 -16 3 -14 9 9
l8 30 1 -34 c1 -30 -1 -33 -24 -29 -14 3 -25 1 -25 -3 0 -5 -6 -6 -12 -4 -28
9 -104 12 -125 4 -13 -5 -25 -4 -28 1 -4 6 -1 10 6 10 9 0 9 4 -1 15 -12 15
-6 35 12 35 5 0 8 -6 5 -14z m293 -21 c0 -24 -25 -41 -35 -24 -4 5 -10 7 -15
4 -5 -3 -12 0 -16 6 -4 8 -9 7 -15 -2 -6 -10 -9 -6 -9 13 0 21 5 26 20 25 11
-1 20 -5 20 -10 0 -5 7 -1 16 7 20 20 34 12 34 -19z"/>
<path d="M3200 1240 c0 -5 5 -10 11 -10 5 0 7 5 4 10 -3 6 -8 10 -11 10 -2 0
-4 -4 -4 -10z"/>
<path d="M3350 1251 c0 -6 4 -12 8 -15 5 -3 9 1 9 9 0 8 -4 15 -9 15 -4 0 -8
-4 -8 -9z"/>
<path d="M580 1424 c0 -96 3 -174 8 -174 4 0 6 74 4 165 l-3 165 58 1 c67 1
61 6 -14 12 l-53 4 0 -173z"/>
<path d="M1180 1568 c0 -9 7 -19 16 -22 15 -6 15 -4 3 11 -7 10 -15 20 -16 22
-2 2 -3 -3 -3 -11z"/>
<path d="M1222 1560 c0 -14 2 -19 5 -12 2 6 2 18 0 25 -3 6 -5 1 -5 -13z"/>
<path d="M1262 1560 c0 -14 2 -19 5 -12 2 6 2 18 0 25 -3 6 -5 1 -5 -13z"/>
<path d="M1292 1560 c0 -14 2 -19 5 -12 2 6 2 18 0 25 -3 6 -5 1 -5 -13z"/>
<path d="M6530 1565 c-23 -12 -23 -14 -7 -21 10 -3 23 -2 30 5 6 6 7 11 2 11
-6 0 -3 5 5 10 23 15 -2 11 -30 -5z"/>
<path d="M6505 1521 c-3 -6 0 -11 7 -11 11 0 10 -2 0 -9 -11 -7 -11 -9 1 -14
12 -4 15 0 12 15 -5 26 -11 32 -20 19z"/>
<path d="M4050 1255 l0 -225 505 0 505 0 0 225 0 225 -505 0 -505 0 0 -225z
m490 102 c0 -5 5 -5 11 -2 14 9 59 14 59 6 -1 -39 -29 -69 -31 -33 -1 15 -2
15 -6 -1 -3 -11 -11 -16 -19 -13 -8 3 -14 1 -14 -5 0 -6 -6 -7 -12 -2 -7 4
-33 7 -58 6 -25 -1 -39 1 -32 4 10 4 10 8 2 19 -7 7 -10 17 -7 21 7 11 107 10
107 0z m-188 -177 c5 0 8 7 5 14 -6 15 29 33 40 22 4 -3 1 -6 -5 -6 -7 0 -12
-8 -12 -17 0 -15 2 -16 10 -3 11 17 25 7 17 -14 -3 -8 -19 -14 -41 -14 -34 0
-36 2 -35 32 1 23 3 25 6 9 2 -13 9 -23 15 -23z m598 -27 c0 -14 2 -14 16 3
15 18 15 18 10 -6 -3 -14 -6 -28 -6 -31 0 -3 -25 -6 -56 -7 -39 0 -57 4 -61
14 -11 28 5 41 51 42 37 1 46 -2 46 -15z m-374 -33 c-18 -6 -18 -7 -2 -13 10
-4 16 -13 13 -20 -4 -15 -57 -18 -74 -4 -9 6 -13 5 -14 -4 -1 -8 -5 0 -9 16
-6 24 -8 26 -9 8 -1 -24 -21 -33 -21 -10 0 8 -4 7 -10 -3 -5 -8 -10 -11 -10
-7 0 4 -8 4 -17 -2 -10 -5 -26 -5 -40 0 -16 6 -23 5 -24 -4 -1 -6 -5 2 -9 18
-6 23 -8 25 -9 8 -2 -31 -21 -39 -21 -9 0 19 -5 26 -20 26 -11 0 -20 -7 -20
-15 0 -8 8 -15 17 -15 9 0 13 -3 10 -6 -3 -4 -38 -7 -77 -8 -59 -1 -71 1 -76
16 -8 25 3 38 32 38 17 0 24 -5 24 -20 0 -11 5 -20 10 -20 6 0 10 9 10 20 0
12 7 20 18 20 14 0 15 -2 2 -10 -9 -6 -10 -10 -3 -10 6 0 15 5 18 10 9 15 195
11 195 -4 0 -6 4 -5 9 3 5 8 16 11 25 8 8 -3 17 -3 20 1 3 5 22 6 43 4 29 -4
33 -7 19 -12z"/>
<path d="M4486 1341 c-4 -5 -2 -12 3 -15 5 -4 12 -2 15 3 4 5 2 12 -3 15 -5 4
-12 2 -15 -3z"/>
<path d="M4911 1146 c-8 -10 -9 -16 -1 -21 5 -3 10 1 10 10 0 10 5 13 12 9 7
-4 8 -3 4 4 -9 15 -11 15 -25 -2z"/>
<path d="M4862 1138 c6 -18 28 -21 28 -4 0 9 -7 16 -16 16 -9 0 -14 -5 -12
-12z"/>
<path d="M4400 1105 c0 -8 4 -15 8 -15 5 0 9 7 9 15 0 8 -4 15 -9 15 -4 0 -8
-7 -8 -15z"/>
<path d="M4520 1105 c0 -8 9 -15 20 -15 13 0 18 5 14 15 -4 8 -12 15 -20 15
-8 0 -14 -7 -14 -15z"/>
<path d="M676 1455 c4 -8 8 -15 10 -15 2 0 4 7 4 15 0 8 -4 15 -10 15 -5 0 -7
-7 -4 -15z"/>
<path d="M733 1448 c1 -10 2 -18 4 -18 1 0 7 8 12 18 7 14 6 19 -4 19 -7 0
-13 -9 -12 -19z"/>
<path d="M5662 1420 c0 -14 2 -19 5 -12 2 6 2 18 0 25 -3 6 -5 1 -5 -13z"/>
<path d="M5682 1420 c0 -14 2 -19 5 -12 2 6 2 18 0 25 -3 6 -5 1 -5 -13z"/>
<path d="M5722 1420 c0 -14 2 -19 5 -12 2 6 2 18 0 25 -3 6 -5 1 -5 -13z"/>
<path d="M6473 1425 c-10 -10 -9 -15 4 -19 9 -4 18 -4 21 -1 3 3 -1 5 -9 5
-12 0 -12 2 0 9 7 5 9 11 5 14 -5 3 -14 -1 -21 -8z"/>
<path d="M5790 1421 c0 -6 4 -13 10 -16 6 -3 7 1 4 9 -7 18 -14 21 -14 7z"/>
<path d="M6450 1389 c0 -5 5 -7 10 -4 6 3 10 8 10 11 0 2 -4 4 -10 4 -5 0 -10
-5 -10 -11z"/>
<path d="M6460 1370 c-9 -6 -10 -10 -3 -10 6 0 15 5 18 10 8 12 4 12 -15 0z"/>
<path d="M5392 1308 l-2 -68 335 0 334 0 4 -57 3 -58 2 68 2 67 -335 0 -334 0
-4 58 -3 57 -2 -67z"/>
<path d="M5560 1343 c0 -15 18 -35 23 -27 3 5 -1 15 -9 22 -8 7 -14 9 -14 5z"/>
<path d="M5842 1330 c0 -14 2 -19 5 -12 2 6 2 18 0 25 -3 6 -5 1 -5 -13z"/>
<path d="M5606 1325 c-3 -8 -1 -15 4 -15 6 0 10 7 10 15 0 8 -2 15 -4 15 -2 0
-6 -7 -10 -15z"/>
<path d="M5700 1331 c0 -6 5 -13 10 -16 6 -3 10 1 10 9 0 9 -4 16 -10 16 -5 0
-10 -4 -10 -9z"/>
<path d="M5781 1324 c0 -11 3 -14 6 -6 3 7 2 16 -1 19 -3 4 -6 -2 -5 -13z"/>
<path d="M5800 1331 c0 -5 5 -13 10 -16 6 -3 10 -2 10 4 0 5 -4 13 -10 16 -5
3 -10 2 -10 -4z"/>
<path d="M5891 1324 c0 -11 3 -14 6 -6 3 7 2 16 -1 19 -3 4 -6 -2 -5 -13z"/>
<path d="M5610 1192 c0 -5 7 -15 15 -22 8 -7 15 -9 15 -6 0 4 -7 14 -15 22 -8
9 -15 11 -15 6z"/>
<path d="M5740 1175 c0 -14 4 -25 9 -25 4 0 6 11 3 25 -2 14 -6 25 -8 25 -2 0
-4 -11 -4 -25z"/>
<path d="M5631 1087 c-13 -21 -12 -21 5 -5 10 10 16 20 13 22 -3 3 -11 -5 -18
-17z"/>
<path d="M5681 1084 c0 -11 3 -14 6 -6 3 7 2 16 -1 19 -3 4 -6 -2 -5 -13z"/>
<path d="M5701 1084 c0 -11 3 -14 6 -6 3 7 2 16 -1 19 -3 4 -6 -2 -5 -13z"/>
<path d="M5721 1093 c-2 -20 16 -24 30 -5 13 15 12 16 -3 4 -13 -10 -17 -10
-21 0 -4 9 -6 9 -6 1z"/>
<path d="M5770 1082 c0 -12 3 -12 15 -2 8 7 15 13 15 15 0 1 -7 2 -15 2 -8 0
-15 -7 -15 -15z"/>
<path d="M5811 1084 c0 -11 3 -14 6 -6 3 7 2 16 -1 19 -3 4 -6 -2 -5 -13z"/>
<path d="M960 703 c0 -52 -3 -73 -10 -63 -5 8 -12 11 -16 8 -7 -8 22 -58 34
-58 4 0 16 13 26 27 17 23 17 26 3 20 -15 -6 -17 2 -17 68 0 43 -4 75 -10 75
-6 0 -10 -33 -10 -77z"/>
<path d="M2298 751 c-5 -18 -8 -51 -8 -72 0 -31 -3 -37 -16 -32 -14 5 -14 3 1
-26 18 -36 31 -36 54 -1 15 22 15 24 -1 17 -15 -5 -18 3 -20 71 -2 62 -4 70
-10 43z"/>
<path d="M3011 765 c-2 -11 -4 -24 -6 -30 -1 -5 -3 -29 -3 -53 -1 -26 -6 -41
-12 -37 -15 9 -12 -18 4 -40 14 -19 15 -19 35 -1 24 22 28 41 6 33 -11 -5 -15
8 -18 71 -1 42 -4 68 -6 57z"/>
<path d="M6128 724 c-1 -21 -2 -50 -2 -64 -1 -14 -6 -24 -13 -22 -17 3 -16
-20 1 -43 14 -19 15 -19 35 -1 24 22 28 41 7 33 -12 -5 -15 7 -15 60 0 71 -10
101 -13 37z"/>
<path d="M2629 513 c-1 -76 -2 -142 -4 -148 -1 -5 -3 -17 -4 -25 -1 -11 -7 -8
-21 10 -14 19 -22 22 -31 13 -9 -9 -3 -26 26 -72 39 -66 43 -66 85 -17 47 55
53 67 41 79 -8 8 -18 4 -37 -14 l-26 -24 3 165 c4 150 3 165 -13 168 -16 3
-18 -9 -19 -135z"/>
<path d="M1482 455 c0 -16 2 -24 5 -16 4 10 7 10 13 1 4 -7 8 -1 8 15 0 16 -4
22 -8 15 -6 -9 -9 -9 -13 1 -3 8 -5 1 -5 -16z"/>
<path d="M4650 453 c0 -21 3 -24 9 -13 6 8 7 18 4 24 -3 5 -1 6 5 2 6 -4 9
-12 6 -19 -3 -8 4 -13 18 -14 13 0 17 1 11 4 -21 8 -15 25 6 18 11 -3 22 -2
25 3 3 5 -8 8 -25 7 -16 -1 -32 2 -35 7 -11 17 -24 7 -24 -19z"/>
<path d="M233 463 l237 -3 0 -110 0 -110 1008 2 1007 3 -1002 2 -1003 3 0 110
0 110 -242 -2 -243 -3 238 -2z"/>
<path d="M1521 448 c1 -18 2 -19 6 -5 2 9 9 14 15 11 7 -4 8 -2 4 4 -12 20
-26 13 -25 -10z"/>
<path d="M1562 455 c1 -12 9 -21 19 -21 10 0 15 4 12 9 -3 5 1 13 8 18 9 6 10
9 2 9 -6 0 -15 -5 -19 -11 -4 -8 -9 -7 -15 2 -6 10 -8 8 -7 -6z"/>
<path d="M1620 450 c0 -11 2 -20 4 -20 2 0 6 9 9 20 3 11 1 20 -4 20 -5 0 -9
-9 -9 -20z"/>
<path d="M1681 448 c5 -10 15 -18 22 -18 8 0 6 4 -3 10 -13 9 -13 11 0 20 12
7 10 9 -7 7 -17 -1 -20 -5 -12 -19z"/>
<path d="M4747 452 c-15 -16 -15 -18 2 -18 12 0 17 5 13 15 -3 9 -1 12 6 7 7
-4 12 -2 12 3 0 16 -15 13 -33 -7z"/>
<path d="M4790 450 c0 -11 2 -20 4 -20 2 0 6 9 9 20 3 11 1 20 -4 20 -5 0 -9
-9 -9 -20z"/>
<path d="M4851 448 c12 -23 20 -24 12 -1 -4 11 -3 14 5 9 7 -4 12 -3 12 3 0 5
-9 9 -19 8 -16 -1 -18 -5 -10 -19z"/>
<path d="M6730 360 l0 -110 -1957 -3 -1958 -2 1963 -3 1962 -2 0 110 0 110
188 3 187 2 -192 3 -193 2 0 -110z"/>
<path d="M4820 451 c0 -5 5 -13 10 -16 6 -3 10 -2 10 4 0 5 -4 13 -10 16 -5 3
-10 2 -10 -4z"/>
</g>
</svg>
